<svg width="72" height="72" viewBox="0 0 72 72" fill="none" xmlns="http://www.w3.org/2000/svg">
<path d="M44.7749 15.3608H27.2244V28.7294H44.7749V15.3608Z" fill="#C5D1FC"/>
<path d="M44.7749 29.5461H27.2244C26.7734 29.5461 26.4073 29.1801 26.4073 28.7291V15.3605C26.4073 14.9095 26.7734 14.5435 27.2244 14.5435H44.7749C45.2263 14.5435 45.5919 14.9095 45.5919 15.3605V28.7291C45.5919 29.1805 45.2263 29.5461 44.7749 29.5461ZM28.0414 27.912H43.9579V16.1775H28.0414V27.912Z" fill="#4E538D"/>
<path d="M22.3671 43.2715H4.81702V56.64H22.3671V43.2715Z" fill="#4BE7AE"/>
<path d="M22.3671 57.4567H4.81702C4.36603 57.4567 4 57.0907 4 56.6397V43.2711C4 42.8201 4.36562 42.4541 4.81702 42.4541H22.3671C22.8181 42.4541 23.1841 42.8201 23.1841 43.2711V56.6397C23.1841 57.0911 22.8181 57.4567 22.3671 57.4567ZM5.63405 55.8227H21.5501V44.0882H5.63405V55.8227Z" fill="#4E538D"/>
<path d="M44.7752 43.2715H27.2247V56.64H44.7752V43.2715Z" fill="#4BE7AE"/>
<path d="M44.7752 57.4567H27.2247C26.7737 57.4567 26.4077 57.0907 26.4077 56.6397V43.2711C26.4077 42.8201 26.7737 42.4541 27.2247 42.4541H44.7752C45.2267 42.4541 45.5923 42.8201 45.5923 43.2711V56.6397C45.5923 57.0911 45.2267 57.4567 44.7752 57.4567ZM28.0418 55.8227H43.9582V44.0882H28.0418V55.8227Z" fill="#4E538D"/>
<path d="M67.183 43.2715H49.6324V56.64H67.183V43.2715Z" fill="#4BE7AE"/>
<path d="M67.183 57.4567H49.6325C49.1815 57.4567 48.8154 57.0907 48.8154 56.6397V43.2711C48.8154 42.8201 49.1815 42.4541 49.6325 42.4541H67.183C67.6344 42.4541 68 42.8201 68 43.2711V56.6397C68 57.0911 67.6344 57.4567 67.183 57.4567ZM50.4495 55.8227H66.3659V44.0882H50.4495V55.8227Z" fill="#4E538D"/>
<path d="M15.8501 36.8644H35.4048V40.7252C35.4048 41.0508 35.6687 41.3147 35.9939 41.3147H36.0057C36.3313 41.3147 36.5952 41.0508 36.5952 40.7252V36.8644H56.1491C56.4747 36.8644 56.7386 37.1282 56.7386 37.4534V40.7252C56.7386 41.0508 57.0025 41.3147 57.3276 41.3147H57.3403C57.6659 41.3147 57.9298 41.0508 57.9298 40.7252V36.2626C57.9298 35.937 57.6659 35.6735 57.3403 35.6735H36.5952V29.5181H35.4048V35.6731H14.6593C14.3337 35.6731 14.0703 35.937 14.0703 36.2622V40.7252C14.0703 41.0508 14.3342 41.3147 14.6593 41.3147H14.6716C14.9972 41.3147 15.2607 41.0508 15.2607 40.7252V37.4534C15.2607 37.1282 15.5246 36.8644 15.8501 36.8644Z" fill="#4E538D"/>
</svg>
