<svg width="72" height="72" viewBox="0 0 72 72" fill="none" xmlns="http://www.w3.org/2000/svg">
<path d="M61.9442 20.1026H51.3821V16.9259C51.3821 13.1961 48.3486 10.1611 44.6198 10.1611H27.3807C23.6524 10.1611 20.6189 13.1961 20.6189 16.9259V20.1026H10.0553C7.25708 20.1026 4.98061 22.3781 4.98061 25.1772V56.7627C4.98061 59.5613 7.25659 61.8378 10.0553 61.8378H21.9015V61.8388H54.0008V61.8378H61.9442C64.7419 61.8378 67.0194 59.5613 67.0194 56.7627V25.1772C67.0194 22.3781 64.7419 20.1026 61.9442 20.1026ZM46.3065 20.1026H41.9692H41.1166H39.6241H32.3764H30.8849H30.0327H25.6945V16.9259C25.6945 15.9958 26.452 15.2387 27.3807 15.2387H44.6198C45.5484 15.2387 46.3059 15.9958 46.3059 16.9259V20.1026H46.3065Z" fill="#C5D1FC"/>
<path d="M54.0008 62.8195L10.0553 62.8186C6.71628 62.8186 4 60.1018 4 56.7628V25.1774C4 21.8384 6.71628 19.1221 10.0553 19.1221H19.6383V16.926C19.6383 12.655 23.1116 9.18066 27.3807 9.18066H44.6198C48.8894 9.18066 52.3627 12.655 52.3627 16.926V19.1221H61.9442C65.2832 19.1221 68 21.8384 68 25.1774V56.7628C68 60.1018 65.2832 62.8186 61.9442 62.8186L54.0008 62.8195ZM10.0553 21.0833C7.79789 21.0833 5.96122 22.92 5.96122 25.1774V56.7628C5.96122 59.0206 7.79789 60.8573 10.0553 60.8573H61.9442C64.2021 60.8573 66.0388 59.0206 66.0388 56.7628V25.1774C66.0388 22.9195 64.2021 21.0833 61.9442 21.0833H51.3821C50.8408 21.0833 50.4015 20.644 50.4015 20.1027V16.926C50.4015 13.7366 47.8078 11.1419 44.6198 11.1419H27.3807C24.1927 11.1419 21.5995 13.7366 21.5995 16.926V20.1027C21.5995 20.644 21.1602 21.0833 20.6189 21.0833H10.0553ZM46.3065 21.0833H25.6945C25.1527 21.0833 24.7139 20.644 24.7139 20.1027V16.926C24.7139 15.4551 25.9102 14.2583 27.3807 14.2583H44.6198C46.0907 14.2583 47.2866 15.4551 47.2866 16.926V20.1027C47.2871 20.644 46.8478 21.0833 46.3065 21.0833ZM26.6751 19.1221H45.3259V16.926C45.3259 16.5367 45.0091 16.2195 44.6203 16.2195H27.3812C26.9919 16.2195 26.6756 16.5362 26.6756 16.926L26.6751 19.1221Z" fill="#4E538D"/>
<path d="M43.0606 20.1021H29.2159V61.0116H43.0606V20.1021Z" fill="#4BE7AE"/>
<path d="M43.0611 61.502H29.2163C28.9457 61.502 28.726 61.2823 28.726 61.0117V20.1021C28.726 19.8315 28.9457 19.6118 29.2163 19.6118H43.0611C43.3317 19.6118 43.5514 19.8315 43.5514 20.1021V61.0117C43.5514 61.2823 43.3317 61.502 43.0611 61.502ZM29.7061 60.5214H42.5703V20.5924H29.7061V60.5214Z" fill="#4E538D"/>
<path d="M30.5093 20.1021H27.3714V61.0116H30.5093V20.1021Z" fill="white"/>
<path d="M30.5093 61.502H27.3714C27.1007 61.502 26.8811 61.2823 26.8811 61.0117V20.1021C26.8811 19.8315 27.1007 19.6118 27.3714 19.6118H30.5093C30.7799 19.6118 30.9996 19.8315 30.9996 20.1021V61.0117C30.9996 61.2823 30.7799 61.502 30.5093 61.502ZM27.8617 60.5214H30.019V20.5924H27.8617V60.5214Z" fill="#4E538D"/>
<path d="M44.6296 20.1021H41.4917V61.0116H44.6296V20.1021Z" fill="white"/>
<path d="M44.6296 61.502H41.4917C41.221 61.502 41.0014 61.2823 41.0014 61.0117V20.1021C41.0014 19.8315 41.221 19.6118 41.4917 19.6118H44.6296C44.9003 19.6118 45.1199 19.8315 45.1199 20.1021V61.0117C45.1199 61.2823 44.9003 61.502 44.6296 61.502ZM41.982 60.5214H44.1393V20.5924H41.982V60.5214Z" fill="#4E538D"/>
</svg>
