<svg width="72" height="72" viewBox="0 0 72 72" fill="none" xmlns="http://www.w3.org/2000/svg">
<path d="M38.3969 55.5824C38.3969 56.1639 38.0795 56.659 37.6387 56.8405L37.6525 56.9123H41.2206L41.3857 56.9175C43.1001 56.9175 44.4777 55.4749 44.3698 53.7373C44.279 52.2465 43.0657 51.0358 41.5771 50.9429C39.8395 50.8354 38.3969 52.2139 38.3969 53.927V53.9829V55.5824Z" fill="#4BE7AE"/>
<path d="M41.3857 57.3472C41.3814 57.3472 41.3767 57.3472 41.3724 57.3468L41.2072 57.3416H37.6525C37.4464 57.3416 37.2692 57.1954 37.2301 56.9933L37.2163 56.9214C37.1776 56.7206 37.2856 56.5201 37.4748 56.4423C37.7647 56.3227 37.9668 55.9687 37.9668 55.5817V53.9262C37.9668 51.9688 39.6245 50.3916 41.6034 50.5129C43.3208 50.6204 44.6945 51.995 44.799 53.7107C44.8588 54.6651 44.5319 55.5739 43.879 56.2685C43.2352 56.9541 42.3264 57.3472 41.3857 57.3472ZM38.6073 56.4823L41.3917 56.4874C42.1036 56.4857 42.7642 56.1993 43.2519 55.6797C43.7405 55.1602 43.9848 54.4797 43.9401 53.7636C43.8631 52.5013 42.8132 51.451 41.5496 51.3718C40.0722 51.2811 38.8266 52.4608 38.8266 53.9266V55.5821C38.8271 55.9055 38.7479 56.2152 38.6073 56.4823Z" fill="#4E538D"/>
<path d="M40.9655 62.4973L41.8799 59.7812L40.043 59.7967L40.9384 62.4973H40.9655Z" fill="#00D6A0"/>
<path d="M42.9978 59.4046C43.0803 59.2558 42.3492 58.7646 42.3492 58.7646L40.9612 62.9126L42.6064 61.1311L41.8963 60.4451C41.8963 60.4451 42.9517 59.4881 42.9978 59.4046Z" fill="white"/>
<path d="M40.9612 62.9125L39.5741 58.7642C39.5741 58.7642 38.8404 59.2571 38.9247 59.4046C38.972 59.488 40.0271 60.445 40.0271 60.445L39.3174 61.1306L40.9612 62.9125Z" fill="white"/>
<path d="M48.7641 21.6811L48.8282 21.7129L52.2295 18.6007L52.2325 18.4605L48.8299 15.1108L48.7641 15.1414V21.6811Z" fill="#C5D1FC"/>
<path d="M48.8282 22.1431C48.7633 22.1431 48.6975 22.1285 48.6369 22.0984L48.5727 22.0666C48.4265 21.9939 48.334 21.8446 48.334 21.6812V15.1415C48.334 14.9738 48.4317 14.8215 48.5839 14.751L48.6497 14.7204C48.8123 14.6452 49.0041 14.6787 49.1319 14.8043L52.5344 18.1539C52.6187 18.2369 52.6652 18.3509 52.6626 18.4692L52.6596 18.6094C52.657 18.7268 52.6067 18.8382 52.5198 18.9178L49.1186 22.03C49.0377 22.1044 48.9336 22.1431 48.8282 22.1431ZM49.1942 16.0731V20.7956L51.6802 18.5208L49.1942 16.0731Z" fill="#4E538D"/>
<path d="M55.3215 19.9986C55.146 20.1715 54.9155 20.2674 54.672 20.2674C54.4376 20.2674 54.2174 20.1771 54.0509 20.0137L53.2419 19.2167L53.2187 19.1943L49.8751 22.2545L49.8888 22.2932H59.4685L59.4827 22.2545L56.1374 19.1956L56.1146 19.2184L55.3215 19.9986Z" fill="#C5D1FC"/>
<path d="M59.4685 22.7232H49.8889C49.7074 22.7232 49.5452 22.6092 49.4841 22.438C49.4256 22.275 49.457 22.0539 49.5848 21.937L52.9284 18.8768C53.0966 18.7232 53.3555 18.7271 53.5185 18.8858L54.3524 19.7073C54.5305 19.8819 54.835 19.8746 55.0191 19.6923L55.8131 18.9116C55.9761 18.7508 56.2591 18.7237 56.4277 18.8781L59.773 21.937C59.9021 22.0548 59.9468 22.2393 59.8861 22.4036C59.8238 22.5722 59.6487 22.7232 59.4685 22.7232ZM50.9396 21.863H58.4174L56.1486 19.7882L55.623 20.3052C55.1172 20.8041 54.2523 20.8131 53.7499 20.3211L53.208 19.7873L50.9396 21.863Z" fill="#4E538D"/>
<path d="M57.2337 18.6006L60.628 21.7063L60.6925 21.6754V15.1482L60.6267 15.1172L57.2302 18.4604L57.2337 18.6006Z" fill="#C5D1FC"/>
<path d="M60.6281 22.1365C60.5227 22.1365 60.4186 22.0978 60.3378 22.0238L56.943 18.9181C56.8565 18.8389 56.8062 18.7284 56.8032 18.611L56.7998 18.4708C56.7967 18.3521 56.8432 18.2372 56.9279 18.1538L60.324 14.8106C60.4526 14.6846 60.6462 14.651 60.8092 14.728L60.875 14.759C61.0255 14.83 61.1219 14.9818 61.1219 15.1482V21.6755C61.1219 21.8402 61.0277 21.9907 60.8793 22.0625L60.8152 22.0935C60.7558 22.1223 60.6918 22.1365 60.6281 22.1365ZM57.783 18.5202L60.2625 20.789V16.0794L57.783 18.5202Z" fill="#4E538D"/>
<path d="M49.6764 14.1422L53.2255 17.6368L53.4393 17.8467L54.2479 18.6428L54.3425 18.7189L54.3799 18.7379L54.4479 18.7718L54.4943 18.7856L54.5606 18.8032L54.6118 18.8084L54.678 18.814L54.7464 18.8071L54.7989 18.8015L54.8672 18.7813L54.9141 18.7667L54.9864 18.7297L55.0247 18.7077L55.1249 18.6277L55.918 17.8467L56.1309 17.6368L59.681 14.1422L59.6659 14.1035H49.6901L49.6764 14.1422Z" fill="#C5D1FC"/>
<path d="M54.678 19.2441C54.6664 19.2441 54.6544 19.2437 54.6428 19.2424L54.5163 19.2307C54.494 19.2286 54.4716 19.2243 54.4496 19.2187L54.3258 19.1843C54.3013 19.177 54.278 19.168 54.2552 19.1568L54.1873 19.1228C54.1864 19.1224 54.149 19.1034 54.1481 19.103C54.121 19.0892 54.0957 19.0729 54.072 19.054L53.9774 18.9778L49.3736 14.4489C49.254 14.3315 49.214 14.1551 49.2704 13.9973C49.3319 13.8265 49.5078 13.6738 49.6893 13.6738H59.6651C59.8423 13.6738 60.001 13.7822 60.0655 13.9474C60.1283 14.1078 60.1046 14.3284 59.9821 14.4493L55.4256 18.9348C55.4148 18.9456 55.4036 18.9551 55.392 18.9645L55.2922 19.0445C55.2755 19.0578 55.2574 19.0703 55.2389 19.0811L55.1094 19.1503C55.0875 19.1615 55.0651 19.1705 55.0419 19.1778L54.9197 19.2148C54.8948 19.2221 54.8699 19.2269 54.8445 19.2299L54.7202 19.2428C54.7064 19.2436 54.6922 19.2441 54.678 19.2441ZM54.6376 18.3787L54.6742 18.3822L54.7812 18.3516L54.8384 18.3056L58.6698 14.5336H50.6863L54.6376 18.3787Z" fill="#4E538D"/>
<path d="M14.9225 25.4177C14.9225 28.9863 17.8132 31.88 21.3826 31.88C24.9516 31.88 27.8457 28.9863 27.8457 25.4177C27.8457 21.8487 24.9516 18.9546 21.3826 18.9546C17.8132 18.9546 14.9225 21.8487 14.9225 25.4177Z" fill="#4BE7AE"/>
<path d="M21.3826 32.31C17.5835 32.31 14.4923 29.218 14.4923 25.4177C14.4923 21.6168 17.5835 18.5244 21.3826 18.5244C25.1834 18.5244 28.2758 21.6168 28.2758 25.4177C28.2758 29.218 25.1834 32.31 21.3826 32.31ZM21.3826 19.3846C18.0579 19.3846 15.3525 22.0913 15.3525 25.4177C15.3525 28.7436 18.0579 31.4498 21.3826 31.4498C24.709 31.4498 27.4156 28.7436 27.4156 25.4177C27.4156 22.0913 24.709 19.3846 21.3826 19.3846Z" fill="#4E538D"/>
<path d="M20.6484 36.3884L19.9125 35.0366L20.6471 36.3884H20.6484Z" fill="#4E538D"/>
<path d="M54.4763 5.95117C47.4927 5.95117 41.8124 11.6328 41.8124 18.616C41.8124 19.542 41.919 20.4422 42.1087 21.3123L36.3828 23.3355C33.7626 17.6594 28.0328 13.7007 21.383 13.7007C12.2726 13.7007 4.86063 21.1144 4.86063 30.2235C4.86063 39.3361 12.2726 46.7489 21.383 46.7489C24.155 46.7489 26.7653 46.0539 29.0616 44.8418L33.4065 49.6762C33.3897 49.6951 33.3678 49.7119 33.3501 49.7308C31.4757 51.8004 30.5966 54.4808 30.8719 57.2774C31.3291 61.8764 34.9979 65.5465 39.5969 66.0003C39.9277 66.0338 40.261 66.0493 40.5892 66.0493C43.3414 66.0493 45.9796 64.8807 47.8278 62.8399C49.7022 60.7698 50.5817 58.0911 50.3056 55.2933C49.8488 50.6942 46.1801 47.0242 41.581 46.5683C39.3324 46.3468 37.1002 46.9205 35.2495 48.1235L31.1278 43.5391C35.2284 40.5296 37.9075 35.6888 37.9075 30.2235C37.9075 28.6132 37.6653 27.0619 37.2344 25.5892L42.8425 23.606C44.7831 28.1147 49.2656 31.2803 54.4772 31.2803C61.4594 31.2803 67.1407 25.5995 67.1407 18.616C67.1398 11.6328 61.4586 5.95117 54.4763 5.95117ZM40.5887 48.9269C40.8391 48.9269 41.092 48.9411 41.3449 48.9665C44.805 49.3067 47.5672 52.0693 47.91 55.5311C48.1018 57.4782 47.5456 59.3453 46.3491 60.8468C45.845 59.5457 44.5883 58.6201 43.1078 58.6201H43.0051H38.8159C37.0985 58.6201 35.6796 59.8662 35.3923 61.5001C34.2211 60.3345 33.443 58.7745 33.2693 57.0404C33.0607 54.9281 33.723 52.9067 35.1346 51.348C36.5273 49.8091 38.5157 48.9269 40.5887 48.9269ZM31.1983 40.1589V39.4028C31.1983 36.048 28.4801 33.3284 25.124 33.3284H17.6424C17.414 33.3284 17.1891 33.3435 16.9671 33.368H16.9573V33.3697C13.9255 33.7108 11.5676 36.2807 11.5676 39.4028V40.1589C9.0025 37.6239 7.40597 34.1078 7.40597 30.2235C7.40597 22.5191 13.6773 16.2487 21.3826 16.2487C29.0891 16.2487 35.3583 22.5191 35.3583 30.2235C35.3583 34.1078 33.7626 37.623 31.1983 40.1589ZM54.4763 28.8722C48.8213 28.8722 44.2205 24.2718 44.2205 18.616C44.2205 12.9618 48.8213 8.35974 54.4763 8.35974C60.1317 8.35974 64.7329 12.9623 64.7329 18.616C64.7325 24.2718 60.1317 28.8722 54.4763 28.8722Z" fill="#4BE7AE"/>
<path d="M40.5888 66.9093C40.2232 66.9093 39.8602 66.8913 39.5101 66.856C34.5071 66.3627 30.5132 62.3696 30.0156 57.3624C29.739 54.5547 30.5334 51.8554 32.259 49.6868L28.8607 45.9053C26.5292 47.0214 23.958 47.609 21.3826 47.609C11.7978 47.609 4 39.8099 4 30.2234C4 20.6381 11.7978 12.8404 21.3826 12.8404C27.8659 12.8404 33.8409 16.516 36.8185 22.2691L41.1264 20.747C41.0107 20.033 40.9522 19.319 40.9522 18.6158C40.9522 11.1583 47.0192 5.09082 54.4763 5.09082C61.9334 5.09082 68 11.1583 68 18.6158C68 26.0733 61.9334 32.1403 54.4763 32.1403C49.3405 32.1403 44.6816 29.2367 42.3922 24.6772L38.2705 26.1348C38.6004 27.4862 38.7673 28.8578 38.7673 30.2234C38.7673 35.404 36.3983 40.3553 32.385 43.6512L35.4142 47.0201C37.3135 45.9612 39.504 45.4989 41.6653 45.7122C46.6713 46.2085 50.6648 50.202 51.1615 55.2084C51.4622 58.2505 50.5047 61.1658 48.4652 63.4173C46.4553 65.6362 43.5844 66.9093 40.5888 66.9093ZM33.9682 50.3293C32.2727 52.2132 31.4771 54.6493 31.7278 57.1929C32.1446 61.3864 35.4899 64.7304 39.6813 65.1442C39.9759 65.1739 40.2808 65.1889 40.5888 65.1889C43.0997 65.1889 45.5057 64.1223 47.19 62.2625C48.8992 60.3752 49.7013 57.9301 49.4493 55.3779C49.033 51.1848 45.688 47.8399 41.4958 47.424C39.4817 47.2262 37.4344 47.7285 35.7179 48.8442C35.363 49.0752 34.8929 49.0132 34.6095 48.6984L30.4878 44.114C30.3252 43.9333 30.247 43.6925 30.2719 43.4503C30.2969 43.2086 30.4229 42.9888 30.6186 42.8451C34.6435 39.8912 37.0469 35.1726 37.0469 30.223C37.0469 28.755 36.8318 27.2772 36.4082 25.8303C36.28 25.3921 36.5166 24.9301 36.9471 24.7774L42.5552 22.7942C42.9823 22.6437 43.4532 22.8493 43.6322 23.2652C45.5027 27.611 49.7594 30.4195 54.4767 30.4195C60.985 30.4195 66.28 25.1245 66.28 18.6154C66.28 12.1062 60.985 6.81079 54.4767 6.81079C47.968 6.81079 42.673 12.1066 42.673 18.6154C42.673 19.4412 42.7659 20.2863 42.9496 21.128C43.0421 21.5517 42.8046 21.9779 42.3956 22.1224L36.6697 24.1456C36.2503 24.294 35.7884 24.0983 35.6022 23.6953C33.0405 18.1461 27.459 14.5604 21.383 14.5604C12.747 14.5604 5.72084 21.5865 5.72084 30.223C5.72084 38.8607 12.747 45.8881 21.383 45.8881C23.9391 45.8881 26.3877 45.28 28.6599 44.0804C29.0087 43.8959 29.438 43.9729 29.7012 44.2662L34.0461 49.1006C34.3377 49.4248 34.3402 49.9156 34.0529 50.2429C34.0344 50.264 33.9944 50.304 33.9682 50.3293ZM35.3918 62.3602C35.1678 62.3602 34.9488 62.2724 34.785 62.1094C33.4435 60.7744 32.6009 59.0045 32.4125 57.1258C32.1798 54.768 32.9201 52.5108 34.4964 50.7702C36.0525 49.0519 38.2731 48.0662 40.5883 48.0662C40.8567 48.0662 41.1397 48.0812 41.4305 48.1105C45.2967 48.4907 48.3822 51.5758 48.7654 55.4458C48.9775 57.5968 48.3581 59.7051 47.0214 61.3825C46.8295 61.6234 46.5242 61.7434 46.2188 61.6965C45.9143 61.6501 45.6579 61.444 45.5465 61.1572C45.1517 60.1383 44.1943 59.4802 43.1074 59.4802H38.8155C37.5436 59.4802 36.4598 60.3924 36.2392 61.6488C36.1837 61.9645 35.9574 62.2229 35.6516 62.3202C35.5665 62.3468 35.4787 62.3602 35.3918 62.3602ZM40.5888 49.787C38.7582 49.787 37.0021 50.5663 35.7716 51.925C34.5252 53.3013 33.9403 55.088 34.1248 56.9559C34.2271 57.977 34.5747 58.9581 35.1282 59.8148C35.8989 58.5675 37.2735 57.7598 38.8155 57.7598H43.1074C44.3904 57.7598 45.5646 58.312 46.3702 59.2381C46.9384 58.1353 47.1784 56.885 47.0532 55.6153C46.7504 52.559 44.3143 50.1225 41.2602 49.8223C41.0249 49.799 40.7995 49.787 40.5888 49.787ZM11.5676 41.0189C11.3453 41.0189 11.1272 40.9329 10.9629 40.7703C8.11436 37.9553 6.54577 34.2096 6.54577 30.2234C6.54577 22.0433 13.2016 15.3883 21.3826 15.3883C29.5631 15.3883 36.2185 22.0433 36.2185 30.2234C36.2185 34.2091 34.6508 37.9549 31.8031 40.7703C31.5566 41.0146 31.1872 41.0865 30.8667 40.9527C30.5463 40.8189 30.3381 40.5058 30.3381 40.1587V39.4026C30.3381 36.5274 27.9993 34.1885 25.124 34.1885H17.6424C17.4673 34.1885 17.2841 34.1988 17.0824 34.2207C17.0729 34.222 17.0631 34.2233 17.0536 34.2246C14.4166 34.5214 12.4278 36.7476 12.4278 39.4026V40.1587C12.4278 40.5058 12.2193 40.8189 11.8993 40.9527C11.7922 40.9974 11.679 41.0189 11.5676 41.0189ZM21.3826 17.1087C14.1504 17.1087 8.26618 22.9921 8.26618 30.2234C8.26618 33.0681 9.17026 35.7747 10.8451 38.022C11.4266 35.1438 13.7917 32.8857 16.8033 32.5214C16.8377 32.515 16.8725 32.5111 16.9078 32.509C17.1676 32.481 17.408 32.4677 17.6424 32.4677H25.124C28.4749 32.4677 31.2784 34.8569 31.9205 38.0211C33.5944 35.7734 34.4981 33.0672 34.4981 30.223C34.4981 22.9917 28.6143 17.1087 21.3826 17.1087ZM54.4763 29.7322C48.3469 29.7322 43.3603 24.7456 43.3603 18.6158C43.3603 12.486 48.3469 7.49939 54.4763 7.49939C60.6061 7.49939 65.5931 12.4864 65.5931 18.6158C65.5931 24.7452 60.6061 29.7322 54.4763 29.7322ZM54.4763 9.2198C49.2957 9.2198 45.0808 13.4348 45.0808 18.6158C45.0808 23.7968 49.2953 28.0118 54.4763 28.0118C59.6573 28.0118 63.8727 23.7968 63.8727 18.6158C63.8727 13.4348 59.6573 9.2198 54.4763 9.2198Z" fill="#4E538D"/>
</svg>
