<svg width="72" height="72" viewBox="0 0 72 72" fill="none" xmlns="http://www.w3.org/2000/svg">
<path d="M5.14606 35.9997C5.14606 53.0399 18.9598 66.8531 35.9994 66.8531C53.0401 66.8531 66.8539 53.0399 66.8539 35.9997C66.8539 18.9596 53.0401 5.14697 35.9994 5.14697C18.9598 5.14755 5.14606 18.9596 5.14606 35.9997Z" fill="white"/>
<path d="M35.9994 68C18.3543 68 3.99911 53.6449 3.99911 35.9997C3.99911 18.3551 18.3543 4 35.9994 4C53.6451 4 68.0009 18.3551 68.0009 35.9997C68.0003 53.6449 53.6446 68 35.9994 68ZM35.9994 6.29445C19.6193 6.29445 6.293 19.6202 6.293 36.0003C6.293 52.3804 19.6193 65.7067 35.9994 65.7067C52.3801 65.7067 65.707 52.3804 65.707 36.0003C65.7064 19.6202 52.3795 6.29445 35.9994 6.29445Z" fill="#4E538D"/>
<path d="M20.9245 19.5881C24.784 14.7004 27.6118 13.1578 29.28 11.4242C30.9448 9.6917 29.2835 5.89759 29.28 5.89014C19.8114 7.99363 11.9847 14.4458 7.99906 23.0456C7.67907 41.165 9.86286 37.852 10.8911 37.563C11.9211 37.2734 13.9792 35.5375 13.7212 30.3929C13.4637 25.2477 17.0657 24.4752 20.9245 19.5881Z" fill="#C5D1FC"/>
<path d="M9.80093 38.5538C9.4557 38.5538 9.13568 38.4132 8.87418 38.1477C8.0891 37.3489 7.21514 34.9088 7.42503 23.035C7.42618 22.9553 7.4445 22.8768 7.47834 22.8039C11.5735 13.9679 19.6773 7.43545 29.1556 5.32967C29.4228 5.27002 29.6964 5.40881 29.8059 5.66113C29.9911 6.08722 31.5613 9.8773 29.6935 11.8214C29.1453 12.3914 28.4892 12.9311 27.7294 13.5561C26.1472 14.8579 23.9806 16.6408 21.3741 19.9435C20.0884 21.5716 18.844 22.7397 17.7464 23.7708C15.5706 25.8135 14.1335 27.1635 14.2935 30.3646C14.5607 35.687 12.3781 37.7406 11.0459 38.1156C10.9954 38.1294 10.8842 38.189 10.7947 38.2366C10.5281 38.3777 10.196 38.5538 9.80093 38.5538ZM8.56966 23.1767C8.38845 33.7532 9.07948 36.7198 9.69253 37.3437C9.75446 37.4068 9.78372 37.4068 9.80093 37.4068C9.90989 37.4068 10.1014 37.3047 10.2557 37.2227C10.4082 37.1419 10.5653 37.0581 10.7351 37.01C11.6704 36.7473 13.3788 35.0315 13.1477 30.4208C12.9608 26.6892 14.7259 25.0319 16.9607 22.9335C18.0297 21.93 19.2408 20.7928 20.4732 19.2318C23.1559 15.8328 25.3776 14.0046 26.9993 12.6695C27.7311 12.0668 28.3636 11.5467 28.8654 11.0254C29.8644 9.98626 29.3506 7.748 28.9256 6.55862C20.0397 8.68907 12.4624 14.8665 8.56966 23.1767Z" fill="#4E538D"/>
<path d="M36.5115 66.5555C41.1521 66.5555 45.5494 65.5244 49.4966 63.6893C49.4932 63.6406 49.3125 61.1947 46.0025 58.6496C42.6574 56.0765 42.529 55.0483 43.8158 48.3593C45.1016 41.6715 42.0151 36.2693 37.8993 37.2655C37.6797 37.3176 37.479 37.344 37.2834 37.3635C37.2272 37.3681 37.1693 37.3756 37.1148 37.3784C36.9663 37.3859 36.8292 37.3773 36.695 37.3652C36.5998 37.3561 36.5069 37.3452 36.4169 37.3286C33.8179 36.8291 33.7543 32.6886 31.9834 31.2285C29.9258 29.5333 23.4943 24.6932 22.9885 30.0948C22.4821 35.4963 23.4943 36.2688 25.0375 39.7056C26.5807 43.1412 23.7518 51.4463 21.4997 56.3007C19.2477 61.1551 21.498 62.6548 21.498 62.6548C25.9161 65.1207 30.9993 66.5349 36.414 66.5515V66.5521C36.4467 66.5532 36.48 66.5555 36.5115 66.5555Z" fill="#C5D1FC"/>
<path d="M36.5115 67.1289C36.5035 67.1289 36.4473 67.1272 36.4393 67.1272C31.0951 67.1094 25.841 65.7365 21.2182 63.1565C21.0708 63.0607 18.5481 61.3002 20.9796 56.0604C23.18 51.3166 25.9373 43.1091 24.5145 39.9412C24.2564 39.3677 24.0139 38.8688 23.7908 38.4106C22.6628 36.0921 21.9815 34.6928 22.4173 30.0425C22.6622 27.4286 24.2289 27.0381 25.1413 27.0381C27.453 27.0381 30.6489 29.387 32.3476 30.7869C33.1843 31.4773 33.6619 32.6203 34.1242 33.7259C34.7269 35.1682 35.2958 36.5302 36.5253 36.7665C36.5952 36.7796 36.6715 36.7883 36.7489 36.7957C36.8287 36.8026 36.9135 36.8089 37.0024 36.8089L37.2381 36.7928C37.3815 36.7785 37.5673 36.7561 37.7674 36.708C39.5567 36.2761 41.3012 36.9087 42.5926 38.4726C44.4484 40.7188 45.1331 44.5491 44.3796 48.4682C43.107 55.0849 43.255 55.8121 46.3529 58.196C49.8402 60.8775 50.0615 63.5384 50.069 63.6508C50.085 63.8877 49.9537 64.1102 49.7387 64.2105C45.5712 66.1471 41.1211 67.1289 36.5115 67.1289ZM25.1407 28.1845C24.4898 28.1845 23.722 28.4075 23.5591 30.1486C23.1531 34.4789 23.7461 35.6969 24.8219 37.9083C25.0496 38.3762 25.2973 38.8854 25.5605 39.471C27.2608 43.2559 24.1348 51.9824 22.0199 56.5426C20.034 60.823 21.7503 62.1306 21.8243 62.1839C26.2309 64.6401 31.293 65.9625 36.4152 65.9786C36.4238 65.9786 36.4765 65.9803 36.4851 65.9808L36.5115 66.5555V65.982C40.804 65.982 44.9525 65.0983 48.8503 63.3538C48.6565 62.6157 47.9764 60.8907 45.6532 59.1038C42.0335 56.319 41.9716 54.9105 43.2527 48.2502C43.9432 44.6586 43.3508 41.1919 41.7078 39.202C40.699 37.9811 39.4024 37.4913 38.0341 37.8228C37.7657 37.8865 37.5329 37.9146 37.3402 37.9341L37.2146 37.3698L37.2731 37.9404C37.2295 37.9449 37.1859 37.949 37.1441 37.9513C36.9634 37.961 36.8034 37.9507 36.6446 37.9369C36.5276 37.926 36.4175 37.9123 36.3114 37.8922C34.474 37.5389 33.7256 35.7474 33.0656 34.1669C32.6389 33.1456 32.2357 32.1804 31.6181 31.6712C28.9681 29.4879 26.5463 28.1845 25.1407 28.1845Z" fill="#4E538D"/>
<path d="M52.2493 40.5129C57.578 43.472 58.6068 45.7865 60.279 48.6161C61.9347 51.418 62.9692 51.5402 62.9898 51.5419C65.7666 46.9117 67.3654 41.4941 67.3654 35.7026C67.3654 20.7275 56.696 8.24936 42.5456 5.44336C42.5295 5.46802 40.3847 8.87902 42.5467 10.5438C44.7162 12.2166 49.2179 16.9759 51.4046 21.8636C53.5912 26.7501 50.8896 25.8504 50.5042 30.2236C50.1189 34.5969 46.9212 37.5544 52.2493 40.5129Z" fill="#4BE7AE"/>
<path d="M62.9899 52.1154C62.9744 52.1154 62.9583 52.1149 62.9423 52.1137C62.7203 52.0954 61.5258 51.8534 59.7859 48.9086C59.65 48.6792 59.5186 48.4527 59.389 48.229C57.9634 45.7763 56.7321 43.6579 51.9717 41.0147C47.7051 38.6457 48.4489 36.084 49.2357 33.3727C49.5287 32.3622 49.8321 31.3179 49.933 30.1738C50.0959 28.329 50.651 27.3454 51.0972 26.5546C51.716 25.4587 52.0893 24.7975 50.8816 22.0982C48.8297 17.5121 44.4862 12.7632 42.1964 10.9981C40.0212 9.32297 41.3648 6.19239 42.0667 5.12745C42.1946 4.93304 42.428 4.83726 42.6568 4.88027C57.3068 7.7849 67.9389 20.7477 67.9389 35.7021C67.9389 41.3944 66.3974 46.9737 63.4819 51.8361C63.3775 52.0105 63.1906 52.1154 62.9899 52.1154ZM42.8392 6.08916C42.4148 6.90407 41.5087 9.0213 42.896 10.0897C45.3487 11.9804 49.7719 16.8108 51.9276 21.6297C53.3022 24.7012 52.887 25.7168 52.0956 27.1184C51.6833 27.8484 51.2159 28.6765 51.0748 30.2742C50.9642 31.5295 50.631 32.6782 50.3362 33.6915C49.5683 36.3381 49.0608 38.086 52.5274 40.0112C57.5642 42.8074 58.8689 45.0525 60.3794 47.6515L60.7722 48.3236C61.6915 49.8789 62.3831 50.5304 62.761 50.7976C65.399 46.2201 66.7914 41.0119 66.7914 35.7015C66.792 21.4318 56.7442 9.04426 42.8392 6.08916Z" fill="#4E538D"/>
</svg>
