<svg width="72" height="72" viewBox="0 0 72 72" fill="none" xmlns="http://www.w3.org/2000/svg">
<path d="M19.0819 48.3519L19.0929 48.3403L19.1991 48.4481L28.6163 39.1702C27.9697 38.3196 27.404 37.4332 26.9204 36.5127L17.0242 46.2627L19.0819 48.3519Z" fill="#4BE7AE"/>
<path d="M19.1997 48.9735C19.0641 48.9735 18.9279 48.9209 18.8254 48.8168L18.8049 48.7958C18.7697 48.7748 18.7371 48.7495 18.7076 48.7201L16.65 46.6309C16.446 46.4238 16.4486 46.0915 16.6552 45.8875L26.5513 36.1375C26.6702 36.0208 26.8363 35.9672 27.0014 35.9925C27.1659 36.0182 27.3084 36.1202 27.3857 36.2674C27.8536 37.158 28.4082 38.0275 29.0348 38.8513C29.1947 39.0616 29.1736 39.3581 28.9854 39.5437L19.5682 48.8216C19.4662 48.9236 19.3327 48.9735 19.1997 48.9735ZM17.7676 46.2682L19.1934 47.716L27.9219 39.1168C27.5129 38.5522 27.136 37.9691 26.7942 37.3751L17.7676 46.2682Z" fill="#4E538D"/>
<path d="M30.1725 47.2265L31.4647 48.5382L35.334 44.7241C34.393 44.2572 33.4819 43.71 32.6119 43.0791L28.3062 47.3201C28.9297 47.3143 29.5516 47.2938 30.1725 47.2265Z" fill="#4BE7AE"/>
<path d="M31.4647 49.064C31.4637 49.064 31.4621 49.064 31.461 49.064C31.3217 49.0629 31.1882 49.0067 31.0904 48.9073L29.9743 47.7744C29.3603 47.8291 28.7709 47.8417 28.3115 47.8459C28.0985 47.8564 27.903 47.7197 27.821 47.5221C27.7389 47.3239 27.7847 47.0962 27.9377 46.9459L32.2433 42.7049C32.4263 42.5246 32.7128 42.503 32.921 42.6539C33.7505 43.2559 34.6411 43.7937 35.568 44.2537C35.7204 44.3294 35.8266 44.4734 35.8534 44.6417C35.8802 44.8094 35.8245 44.9802 35.7036 45.0996L31.8343 48.9136C31.7355 49.0098 31.603 49.064 31.4647 49.064ZM30.1725 46.7009C30.3123 46.7009 30.4475 46.7566 30.5468 46.8576L31.47 47.7944L34.4498 44.8572C33.8352 44.5234 33.239 44.1569 32.667 43.7621L29.6378 46.7461C29.7956 46.7351 29.9554 46.7209 30.1157 46.7035C30.1346 46.7019 30.1541 46.7009 30.1725 46.7009Z" fill="#4E538D"/>
<path d="M39.3713 48.5935L35.3895 52.5171L37.5541 54.7137L41.5358 50.7901L39.3713 48.5935Z" fill="#4BE7AE"/>
<path d="M37.5489 55.2417C37.4132 55.2417 37.2771 55.1891 37.1746 55.085L35.0102 52.8886C34.9124 52.7892 34.8577 52.6551 34.8588 52.5153C34.8598 52.376 34.9161 52.2425 35.0154 52.1447L38.9972 48.2212C39.0966 48.1234 39.2322 48.0866 39.37 48.0698C39.5093 48.0709 39.6428 48.1271 39.7406 48.2265L41.905 50.4229C42.1084 50.6295 42.1063 50.9623 41.8997 51.1663L37.9179 55.0898C37.8159 55.1912 37.6824 55.2417 37.5489 55.2417ZM36.1284 52.5248L37.5547 53.9721L40.7873 50.7867L39.361 49.3389L36.1284 52.5248Z" fill="#4E538D"/>
<path d="M43.7266 48.6274L45.8042 46.5803C44.4384 46.7269 43.0584 46.7133 41.6931 46.564L43.7266 48.6274Z" fill="#4BE7AE"/>
<path d="M43.7271 49.1529C43.5915 49.1529 43.4553 49.1003 43.3528 48.9962L41.3193 46.9328C41.1632 46.7745 41.1237 46.5348 41.2205 46.3345C41.3172 46.1347 41.5291 46.0169 41.7509 46.0406C43.1115 46.1889 44.4631 46.1941 45.749 46.0569C45.9703 46.0338 46.1843 46.1526 46.28 46.3545C46.3757 46.5563 46.3331 46.7971 46.1738 46.9543L44.0962 49.0015C43.9931 49.1029 43.8601 49.1529 43.7271 49.1529ZM43.051 47.1925L43.7324 47.8838L44.4258 47.2003C43.9705 47.214 43.5142 47.2114 43.051 47.1925Z" fill="#4E538D"/>
<path d="M33.1769 54.678L29.1974 58.6011L31.363 60.7978L35.3425 56.8748L33.1769 54.678Z" fill="#4BE7AE"/>
<path d="M31.3732 61.3285C31.3722 61.3285 31.3706 61.3285 31.3696 61.3285C31.2302 61.3275 31.0967 61.2712 30.9989 61.1718L28.834 58.9738C28.6306 58.7667 28.6327 58.4344 28.8393 58.2304L32.8184 54.3086C33.0251 54.1046 33.3578 54.1072 33.5613 54.3138L35.7278 56.5092C35.8261 56.6081 35.8802 56.7427 35.8792 56.882C35.8781 57.0213 35.8219 57.1548 35.7225 57.2526L31.7418 61.1771C31.644 61.2738 31.5115 61.3285 31.3732 61.3285ZM29.9517 58.61L31.379 60.0589L34.6106 56.873L33.1828 55.4257L29.9517 58.61Z" fill="#4E538D"/>
<path d="M27.1074 48.5015L23.1281 52.4238L25.2922 54.6194L29.2716 50.6971L27.1074 48.5015Z" fill="#4BE7AE"/>
<path d="M25.2865 55.1501C25.1508 55.1501 25.0152 55.0975 24.9122 54.9934L22.7472 52.7975C22.6495 52.6981 22.5948 52.5641 22.5958 52.4242C22.5969 52.2849 22.6531 52.1514 22.7525 52.0536L26.7332 48.1317C26.8326 48.0334 26.9635 47.9751 27.1065 47.9803C27.2458 47.9814 27.3794 48.0376 27.4771 48.137L29.6405 50.3329C29.8445 50.5395 29.8418 50.8723 29.6352 51.0763L25.6561 54.9981C25.553 55.0996 25.42 55.1501 25.2865 55.1501ZM23.8655 52.4337L25.2923 53.8805L28.5228 50.6967L27.0976 49.2494L23.8655 52.4337Z" fill="#4E538D"/>
<path d="M62.5121 47.3764L57.8164 42.6123L53.8383 46.5342L58.4835 51.2478L58.5718 51.3487L58.668 51.4386C59.2032 51.9333 59.884 52.182 60.5638 52.182C61.2751 52.182 61.9848 51.9144 62.5279 51.3771C63.0736 50.8403 63.3527 50.1348 63.3632 49.4246C63.3722 48.7222 63.1183 48.0157 62.601 47.4652L62.5605 47.4195L62.5121 47.3764Z" fill="#4BE7AE"/>
<path d="M60.5638 52.7079C59.7274 52.7079 58.9272 52.3941 58.3111 51.8247L58.2128 51.7332C58.2002 51.7211 58.1875 51.7085 58.176 51.6954L58.0877 51.5944L53.4634 46.9035C53.2594 46.6963 53.2621 46.3641 53.4687 46.1601L57.4468 42.2382C57.5462 42.1399 57.6792 42.081 57.8195 42.0868C57.9589 42.0879 58.0924 42.1441 58.1902 42.2435L62.9101 47.0281C62.9253 47.0412 62.9395 47.0559 62.9532 47.0712L62.9937 47.1169C63.5788 47.7393 63.9 48.5653 63.8884 49.4322C63.8753 50.3122 63.5231 51.136 62.8959 51.7527C62.274 52.3678 61.4449 52.7079 60.5638 52.7079ZM58.9488 50.9815L59.0266 51.0545C59.4461 51.442 59.9923 51.6565 60.5638 51.6565C61.1663 51.6565 61.7325 51.4246 62.1583 51.0035C62.5883 50.5809 62.8291 50.0178 62.838 49.4169C62.8459 48.8244 62.6257 48.2588 62.2182 47.8256L62.162 47.7688L57.8111 43.3559L54.5816 46.5397L58.9488 50.9815Z" fill="#4E538D"/>
<path d="M41.077 62.6893L39.2758 60.8604L35.2951 64.7827L36.9269 66.4393L37.1067 66.6385L37.3044 66.8225C38.3979 67.7389 40.0308 67.6905 41.0686 66.6685C42.1631 65.5897 42.1826 63.8296 41.1164 62.7277L41.0975 62.7046L41.077 62.6893Z" fill="#4BE7AE"/>
<path d="M39.1023 68C38.3211 68 37.563 67.725 36.9674 67.2256L36.5374 66.7914L34.9213 65.1517C34.7178 64.945 34.7199 64.6123 34.9266 64.4083L38.9073 60.4859C39.0067 60.3886 39.1486 60.3418 39.28 60.3345C39.4194 60.3355 39.5529 60.3918 39.6507 60.4911L41.4344 62.3028C41.4597 62.3249 41.487 62.3506 41.5033 62.3706C42.7571 63.6675 42.7319 65.7673 41.4371 67.0427C40.8109 67.6604 39.9819 68 39.1023 68ZM36.0385 64.7878L37.6629 66.4376C38.0493 66.7603 38.5677 66.9486 39.1023 66.9486C39.7043 66.9486 40.2715 66.7162 40.7 66.294C41.5853 65.4219 41.6027 63.9861 40.7389 63.0935C40.7363 63.0908 40.7315 63.0856 40.7268 63.0798C40.7174 63.0714 40.7089 63.0635 40.7026 63.0577L39.2706 61.6036L36.0385 64.7878Z" fill="#4E538D"/>
<path d="M10.344 39.4837C10.5958 39.777 10.8513 40.0683 11.1283 40.3474C11.3318 40.554 11.5452 40.7449 11.7576 40.9378C11.8328 41.0035 11.9027 41.0771 11.9774 41.1428L13.1024 42.2836L24.9747 30.5869L32.2896 23.3761L32.2969 23.3824L35.446 20.2776L35.5674 20.1614C35.6368 20.0836 35.6747 19.99 35.7204 19.9027C35.8292 19.8239 35.9391 19.7476 36.0453 19.6688L36.2561 19.5878C36.3176 19.4574 36.3949 19.3323 36.5048 19.2245C36.9906 18.7446 37.7713 18.7461 38.2591 19.2224L38.2901 19.2561L47.1464 28.3153L48.927 30.1327C49.4154 30.6894 50.1314 31.0464 50.9326 31.0553C52.4351 31.0721 53.6664 29.8677 53.6811 28.3657C53.6911 27.5987 53.3751 26.9064 52.871 26.4074L52.8089 26.3417L41.7094 14.9925L41.7068 14.9983L41.6768 14.9678C39.7832 13.0484 37.5809 11.6295 35.2294 10.6853C33.1134 9.83625 30.8801 9.36626 28.6337 9.30948C27.8415 9.28687 27.0529 9.31474 26.2664 9.39096C25.5588 9.45983 24.8564 9.57075 24.1599 9.71848C22.7851 9.66538 21.4277 9.11863 20.3873 8.06194L17.908 5.54639L1.97766 21.2444L4.22511 23.5286L5.62615 24.9507C6.29329 25.9248 6.61608 27.0583 6.59926 28.1907L6.58244 28.4562C6.53722 29.4214 6.58244 30.3887 6.70966 31.3466C7.08292 34.1166 8.18851 36.8104 10.0275 39.1088L10.0001 39.1361L10.344 39.4837Z" fill="#4BE7AE"/>
<path d="M13.1024 43.3346C12.8311 43.3346 12.5599 43.23 12.3538 43.0213L11.2513 41.9036C11.214 41.8699 11.1767 41.8347 11.1404 41.799L10.9738 41.6455C10.7724 41.4625 10.5716 41.2796 10.3786 41.084C10.1047 40.8085 9.85555 40.5278 9.57009 40.196L9.25256 39.8748C9.15425 39.7755 9.08012 39.6614 9.02913 39.5399C7.22381 37.2031 6.06302 34.4247 5.66715 31.4865C5.52994 30.4508 5.4842 29.4156 5.53204 28.4063L5.54992 28.1245C5.56148 27.257 5.30598 26.3765 4.80813 25.6184L1.22851 21.982C0.821598 21.5682 0.826328 20.9027 1.24007 20.4952L17.1704 4.79727C17.5842 4.38984 18.2497 4.39404 18.6571 4.80831L21.1364 7.32388C21.9171 8.11666 22.9581 8.58876 24.0784 8.66131C24.7802 8.51779 25.4815 8.41107 26.1649 8.34431C26.9987 8.26387 27.8346 8.23494 28.6642 8.2586C31.0289 8.31801 33.371 8.8064 35.6216 9.70959C38.1766 10.7353 40.4487 12.2388 42.376 14.1787C42.406 14.2029 42.4344 14.2292 42.4617 14.2571L53.6353 25.6846C54.3477 26.3891 54.7462 27.3548 54.7325 28.3789C54.7125 30.4329 53.0218 32.1068 50.9636 32.1068C49.8659 32.0947 48.8602 31.6368 48.1573 30.8493L37.5383 19.9911C37.5352 19.9879 37.5247 19.9764 37.5136 19.9648C37.4185 19.8838 37.3359 19.8817 37.2439 19.9727C37.2424 19.9743 37.2298 19.989 37.2071 20.0373C37.0915 20.2818 36.8859 20.4726 36.6331 20.5699L36.5332 20.6141C36.4853 20.694 36.4275 20.7781 36.3529 20.8611C36.3344 20.8822 36.315 20.9016 36.295 20.9211L36.1736 21.0373L33.0356 24.1316C33.0014 24.1653 32.9656 24.1963 32.9283 24.2242L13.841 43.0333C13.636 43.2342 13.3689 43.3346 13.1024 43.3346ZM10.9464 38.5968L11.092 38.744C11.1094 38.7614 11.1262 38.7798 11.142 38.7987C11.408 39.1083 11.6341 39.3644 11.8743 39.6062C12.0425 39.777 12.215 39.9332 12.3869 40.0888L12.4647 40.1598C12.5005 40.1903 12.5499 40.2376 12.5988 40.2849L12.6713 40.3532C12.6897 40.3695 12.7081 40.3864 12.7255 40.4042L13.1129 40.7969L31.5515 22.6276C31.5856 22.5939 31.6214 22.5629 31.6587 22.535L34.7888 19.4149C34.8645 19.2708 34.9723 19.1463 35.1037 19.0511L35.4192 18.8245C35.4549 18.7982 35.4923 18.774 35.5306 18.752C35.6027 18.651 35.6815 18.559 35.7682 18.4738C36.1988 18.0491 36.7724 17.8136 37.3812 17.8136C37.9868 17.8136 38.5593 18.0464 38.993 18.4696C39.0062 18.4823 39.0188 18.4954 39.0309 18.5091L49.6772 29.3967C49.6909 29.4104 49.704 29.4251 49.7166 29.4393C50.0268 29.7931 50.4737 29.9987 50.9437 30.0039C51.8726 30.0039 52.6202 29.2642 52.6286 28.3553C52.6344 27.9037 52.4577 27.4784 52.1302 27.1545L52.0435 27.0641L41.036 15.809C41.0081 15.7864 40.9813 15.7617 40.956 15.7359C39.1933 13.949 37.1441 12.5879 34.8367 11.6611C32.8195 10.852 30.7235 10.4141 28.6064 10.3604C27.8499 10.3389 27.1133 10.3652 26.3673 10.4372C25.7176 10.5003 25.0478 10.6044 24.377 10.7463C24.2918 10.7642 24.2056 10.7721 24.1183 10.7684C22.4145 10.7027 20.8226 10.0035 19.6371 8.79905L17.8964 7.03262L3.46334 21.2554L6.37424 24.2121C6.41788 24.2568 6.45783 24.3046 6.49253 24.3561C7.27007 25.4917 7.67014 26.8228 7.64964 28.206L7.63124 28.5219C7.59076 29.3894 7.63071 30.2989 7.7511 31.2078C8.10859 33.8611 9.17948 36.3667 10.8476 38.4517C10.886 38.498 10.918 38.5463 10.9464 38.5968Z" fill="#4E538D"/>
<path d="M45.4536 54.772L41.4734 58.6954L46.187 63.4821L46.2785 63.5815L46.3778 63.6735C46.8883 64.1461 47.5312 64.3916 48.1837 64.4131C48.9191 64.4347 49.6636 64.1703 50.2308 63.6114C50.797 63.0526 51.0725 62.3129 51.0599 61.5758C51.0483 60.885 50.7839 60.1927 50.2582 59.6596L50.1593 59.5702L50.1709 59.5602L45.4536 54.772Z" fill="#4BE7AE"/>
<path d="M48.2667 64.9395L48.1679 64.938C47.3662 64.9117 46.6044 64.5994 46.0203 64.059L45.7995 63.8376L41.0985 59.0636C40.8951 58.8565 40.8972 58.5242 41.1043 58.3202L45.0845 54.3968C45.1839 54.299 45.3159 54.2343 45.4573 54.2454C45.5966 54.2464 45.7301 54.3027 45.8279 54.402L50.5452 59.1903C50.5678 59.2134 50.5883 59.2386 50.6062 59.2649L50.6104 59.2686C51.2323 59.8979 51.5709 60.7065 51.5851 61.566C51.6008 62.4829 51.2507 63.3419 50.5993 63.9848C49.9748 64.601 49.1463 64.9395 48.2667 64.9395ZM42.2167 58.7008L46.7353 63.2883C47.1333 63.6568 47.6537 63.8697 48.201 63.8876L48.2667 63.8886C48.8687 63.8886 49.4354 63.6573 49.8618 63.2368C50.306 62.7983 50.5447 62.2116 50.5342 61.5844C50.5242 60.9961 50.2934 60.4436 49.8838 60.0283L49.8071 59.9599C49.795 59.9489 49.7829 59.9368 49.7719 59.9247L49.7708 59.9237C49.7708 59.9237 49.7698 59.9226 49.7692 59.9216C49.7456 59.8953 49.7251 59.8674 49.7077 59.838L45.4489 55.515L42.2167 58.7008Z" fill="#4E538D"/>
<path d="M50.1593 59.57L50.1572 59.5674L50.1593 59.57Z" fill="#4BE7AE"/>
<path d="M50.1577 60.0951C50.0042 60.0951 49.8523 60.0278 49.7487 59.8985L49.7466 59.8958C49.6693 59.7986 49.6315 59.6829 49.6315 59.5673C49.6315 59.4132 49.6993 59.2602 49.8291 59.1567C50.0563 58.9753 50.3869 59.0121 50.5683 59.2392C50.6461 59.3365 50.6834 59.4527 50.6834 59.5678C50.684 59.7224 50.6161 59.8753 50.4868 59.9794C50.389 60.0572 50.2729 60.0951 50.1577 60.0951Z" fill="#4E538D"/>
<path d="M57.6518 54.7974L51.6313 48.6875L47.649 52.6094L53.6916 58.7403L53.7563 58.815C54.8435 59.9148 56.6157 59.9305 57.7176 58.8428C58.8195 57.7583 58.8331 55.9855 57.7475 54.8836L57.6518 54.7974Z" fill="#4BE7AE"/>
<path d="M55.753 60.175C54.8556 60.175 54.0139 59.8233 53.382 59.1846L53.2936 59.0847L47.2742 52.9785C47.1764 52.8791 47.1217 52.745 47.1228 52.6052C47.1238 52.4654 47.1801 52.3324 47.2794 52.2346L51.2617 48.3127C51.4689 48.1093 51.8011 48.1114 52.0051 48.3185L58.0987 54.4931C58.7448 55.1481 59.085 55.9856 59.0781 56.874C59.0713 57.762 58.7191 58.5942 58.0861 59.2177C57.461 59.8349 56.632 60.175 55.753 60.175ZM48.3924 52.6152L54.1532 58.4712C54.5622 58.8834 55.1384 59.1241 55.7524 59.1241C56.3533 59.1241 56.9195 58.8918 57.3475 58.4691C57.7807 58.0422 58.022 57.4734 58.0267 56.8662C58.0314 56.259 57.7991 55.6859 57.3727 55.2533L57.2996 55.1886L51.6255 49.4314L48.3924 52.6152Z" fill="#4E538D"/>
<path d="M67.7367 23.2338L70.0214 20.9827L54.3203 5.05078L51.8048 7.53113C50.7475 8.57363 49.3796 9.09987 48.008 9.13194C47.3146 8.97265 46.6143 8.85332 45.9062 8.77288C45.1213 8.68561 44.3343 8.6467 43.5425 8.65669C40.6884 8.68876 37.8411 9.3722 35.2294 10.6849C37.5809 11.6291 39.7831 13.048 41.6768 14.9674L41.7067 14.9979L41.7094 14.9921L52.8089 26.3414L52.8709 26.4076C53.3751 26.906 53.691 27.5983 53.681 28.3654C53.6663 29.8673 52.4356 31.0723 50.9326 31.0549C50.1314 31.046 49.4154 30.689 48.927 30.1328L47.1464 28.3154L38.2901 19.2562L38.2591 19.2221C37.7712 18.7458 36.9905 18.7442 36.5048 19.2247C36.3949 19.3319 36.3176 19.4571 36.2561 19.5874L36.0453 19.6684C35.9391 19.7473 35.8292 19.824 35.7204 19.9023C35.6746 19.9901 35.6368 20.0832 35.5674 20.161L35.4459 20.2772L32.2969 23.3821L32.2895 23.3763L24.9747 30.5865L13.1024 42.2833L9.10585 46.2198L9.05853 46.263L9.01648 46.3076C8.48971 46.8518 8.22369 47.5536 8.22369 48.2586C8.22369 48.9678 8.49076 49.6775 9.02857 50.2206C9.56585 50.7684 10.2708 51.0438 10.9806 51.0554C11.6624 51.0644 12.3453 50.8257 12.8868 50.3399L12.9857 50.2511L13.0782 50.1517L17.0242 46.263L26.9204 36.5124C27.404 37.4335 27.9697 38.3204 28.6163 39.17L19.1991 48.4478L13.8568 53.7134L13.7595 53.7991C12.6576 54.8842 12.6471 56.6569 13.7301 57.7583C14.8167 58.8608 16.5889 58.8713 17.6908 57.7883L17.7587 57.7131L23.1215 52.4281L27.1023 48.5062L28.3062 47.3202L32.6118 43.0792C33.4819 43.7101 34.3929 44.2573 35.334 44.7242L31.4647 48.5383L29.2656 50.7021L25.2864 54.624L21.2673 58.5832L21.2784 58.5932L21.1774 58.6846C20.6433 59.2098 20.3683 59.8949 20.3462 60.5872C20.3242 61.3253 20.5891 62.0687 21.1474 62.6349C21.7047 63.2006 22.4465 63.4771 23.183 63.4655C23.8349 63.4566 24.48 63.2185 24.9989 62.7542L25.0982 62.6649L25.1892 62.566L29.2083 58.6053L33.1875 54.6834L35.3844 52.5201L39.3662 48.5966L41.4455 46.5495C41.5275 46.5595 41.6111 46.5547 41.6931 46.5642C43.0589 46.714 44.4389 46.7277 45.8042 46.581L43.7266 48.6282L41.5306 50.7931L37.5488 54.7165L35.354 56.8788L31.3732 60.8033L30.3118 61.8463L30.2913 61.8647L30.2713 61.8863C29.1899 62.9729 29.1836 64.733 30.2613 65.8276C31.2854 66.8654 32.9136 66.9363 34.0228 66.0358L34.2252 65.8565L34.4061 65.6588L35.2951 64.783L39.2758 60.8606L41.4728 58.6957L45.453 54.7723L47.6484 52.6105L51.6307 48.6881L52.504 47.8249L52.516 47.8364L53.8382 46.5353L57.8163 42.6129L59.7247 40.734C60.0202 40.4843 60.3077 40.2235 60.5895 39.9496C60.8687 39.6752 61.13 39.3892 61.3855 39.0974L61.7303 38.7557L61.704 38.7284C63.5793 36.4557 64.7211 33.7808 65.1396 31.0166C65.2805 30.0582 65.3389 29.093 65.3073 28.1277L65.2958 27.8617C65.2921 26.7304 65.6359 25.6006 66.3162 24.6365L67.7367 23.2338Z" fill="#C5D1FC"/>
<path d="M32.2559 67.7135C31.2176 67.7135 30.2435 67.306 29.5133 66.5658C28.037 65.0665 28.0434 62.635 29.5264 61.1441C29.5417 61.1288 29.5774 61.092 29.5937 61.0778L43.1473 47.723C42.7141 47.7078 42.2772 47.6788 41.8403 47.6363L25.8721 63.3763C25.8495 63.401 25.8259 63.4241 25.8012 63.4467L25.7018 63.5361C25.0084 64.1565 24.1194 64.504 23.1973 64.5171C23.1925 64.5171 23.1431 64.5171 23.1384 64.5171C22.0985 64.5171 21.1254 64.1107 20.3983 63.3731C19.6555 62.6203 19.2633 61.6199 19.2954 60.5563C19.3269 59.5606 19.7333 58.6306 20.4399 57.9362C20.4672 57.9004 20.4972 57.8668 20.5298 57.8347L33.5855 44.9724C33.2958 44.8016 33.0104 44.6239 32.7301 44.4394L18.4721 58.4929C18.4579 58.5087 18.4432 58.5239 18.4279 58.5386C17.7019 59.252 16.742 59.6453 15.7247 59.6453C14.6854 59.6453 13.7107 59.2373 12.9815 58.4971C11.4916 56.9825 11.5105 54.5395 13.022 53.0506C13.0356 53.037 13.0498 53.0238 13.0646 53.0112L13.1397 52.945L27.2343 39.0565C27.044 38.7816 26.861 38.5024 26.6859 38.2201L13.7554 50.9683C13.7338 50.9909 13.7117 51.013 13.6881 51.034L13.5892 51.1228C12.8806 51.7584 11.9674 52.108 11.0174 52.108C11.0116 52.108 10.969 52.1075 10.9633 52.1075C9.94232 52.0912 8.98866 51.6827 8.27789 50.9577C7.56606 50.2386 7.1723 49.2791 7.1723 48.2598C7.1723 47.2551 7.55923 46.3025 8.26159 45.5775L8.29156 45.5455C8.31101 45.5244 8.33099 45.505 8.35201 45.4861L8.39933 45.443L31.5515 22.6289C31.5851 22.5957 31.6209 22.5652 31.6577 22.5374L34.7878 19.4183C34.863 19.2732 34.9713 19.1481 35.1038 19.0519L35.4166 18.8269C35.4534 18.7995 35.4912 18.7748 35.5312 18.7522C35.6037 18.6513 35.6831 18.5587 35.7704 18.4736C36.1988 18.0498 36.7729 17.8143 37.3822 17.8143C37.9879 17.8143 38.5604 18.0477 38.9941 18.4709C39.0099 18.4867 39.0251 18.5025 39.0403 18.5188L49.6788 29.398C49.6925 29.4117 49.7051 29.4259 49.7182 29.4406C50.0284 29.7939 50.4758 30 50.9453 30.0047C51.8747 30.0047 52.6218 29.265 52.6307 28.356C52.6365 27.9045 52.4599 27.4797 52.1329 27.1563L52.043 27.0617L41.0375 15.8092C41.0086 15.7856 40.9808 15.7598 40.9545 15.7325C39.1949 13.9482 37.1457 12.5876 34.8383 11.6613C34.4545 11.5073 34.1969 11.1429 34.1795 10.7297C34.1622 10.3165 34.3883 9.93168 34.7578 9.74611C37.4758 8.38029 40.5092 7.64008 43.5316 7.60591L43.786 7.60432C44.5289 7.60432 45.2817 7.64639 46.0235 7.72841C46.7243 7.80779 47.424 7.92502 48.1079 8.07695C49.2283 8.02123 50.275 7.56438 51.0677 6.78316L53.5833 4.30281C53.782 4.10672 54.0423 4.00053 54.3288 4C54.6079 4.0021 54.8745 4.11461 55.07 4.31333L70.7712 20.2452C70.9667 20.444 71.0756 20.7121 71.0735 20.9907C71.0714 21.2693 70.9583 21.5364 70.7601 21.732L67.1253 25.3153C66.6133 26.0713 66.3446 26.9482 66.3478 27.8576L66.3583 28.0816C66.3919 29.1047 66.332 30.1393 66.1806 31.1692C65.7348 34.1153 64.5272 36.8816 62.6835 39.1906C62.6341 39.3047 62.5636 39.4103 62.4711 39.5023L62.1525 39.8178C61.8471 40.1663 61.5842 40.447 61.3272 40.6994C61.0375 40.9812 60.7389 41.253 60.435 41.5106L53.2542 48.5852C53.209 48.6293 53.1612 48.6693 53.1107 48.7035L35.0012 66.5663C34.9765 66.5932 34.9502 66.6189 34.9229 66.6436L34.7205 66.8229C34.0013 67.4075 33.1386 67.7135 32.2559 67.7135ZM31.0263 62.6177C31.0221 62.6219 31.0189 62.6256 31.0168 62.6271C30.3434 63.3043 30.3407 64.4088 31.011 65.0891C31.624 65.7105 32.6844 65.7678 33.3605 65.2189L33.6312 64.9482C33.6433 64.935 33.6559 64.9219 33.6685 64.9093L51.7648 47.0764C51.8111 47.0312 51.86 46.9907 51.9121 46.9555L58.9872 39.9844C59.0061 39.966 59.0256 39.9482 59.0461 39.9308C59.3231 39.6969 59.596 39.4492 59.8567 39.1958C60.0781 38.9782 60.3136 38.7258 60.5948 38.4052C60.6117 38.3862 60.6285 38.3678 60.6464 38.3505L60.7957 38.2028C60.8235 38.1528 60.8561 38.105 60.8934 38.0598C62.5899 36.0037 63.6987 33.5139 64.1003 30.86C64.2328 29.9584 64.2859 29.0495 64.2565 28.1631L64.2454 27.9081C64.2402 26.4876 64.6592 25.1618 65.4572 24.0315C65.493 23.9805 65.5334 23.9326 65.5776 23.889L68.5348 20.9728L54.3099 6.53922L52.5429 8.28145C51.338 9.46905 49.7366 10.1451 48.0328 10.1846C47.9455 10.1882 47.8582 10.1777 47.7731 10.1583C47.1228 10.009 46.4551 9.89541 45.788 9.81918C45.1255 9.74558 44.451 9.70826 43.7855 9.70826L43.5563 9.70983C41.6043 9.73191 39.6475 10.0826 37.7949 10.736C39.4798 11.6566 41.0144 12.81 42.3771 14.1816C42.4065 14.2058 42.4344 14.2315 42.4617 14.2589L53.6385 25.6901C54.3477 26.3904 54.7462 27.3556 54.7331 28.3808C54.7126 30.4347 53.0224 32.1081 50.9658 32.1081C49.8665 32.096 48.8608 31.6386 48.1584 30.8511L37.5389 19.9924C37.5342 19.9876 37.5236 19.9761 37.5121 19.9635C37.4169 19.8851 37.336 19.883 37.245 19.9735C37.2419 19.9766 37.2298 19.9908 37.2087 20.0365C37.0931 20.282 36.887 20.4734 36.6336 20.5707L36.5537 20.6012C36.5469 20.6059 36.5405 20.6111 36.5337 20.6159C36.4859 20.6953 36.4286 20.7783 36.355 20.8609C36.336 20.8824 36.3161 20.9029 36.295 20.9229L36.1736 21.0391L33.0361 24.1329C33.0025 24.1661 32.9667 24.1966 32.9299 24.2244L9.78513 47.028C9.45287 47.3713 9.27623 47.8045 9.27623 48.2603C9.27623 48.7224 9.45392 49.1566 9.77671 49.4826C10.1016 49.8138 10.5343 49.9983 10.9985 50.0062C11.4496 50.0062 11.8643 49.8474 12.1856 49.5593L12.3091 49.4374L26.1834 35.765C26.4205 35.5316 26.7543 35.4238 27.0834 35.4753C27.4125 35.5268 27.6974 35.7308 27.8525 36.0252C28.3073 36.8906 28.8461 37.7354 29.4544 38.535C29.7745 38.9561 29.7325 39.5496 29.3555 39.9208L14.5965 54.4643C14.5823 54.478 14.5681 54.4916 14.5534 54.5042L14.4803 54.5689C13.8127 55.246 13.8106 56.3417 14.4814 57.0235C15.1291 57.6807 16.2662 57.6975 16.9354 57.0603L16.9796 57.0114C16.9933 56.9962 17.008 56.9809 17.0227 56.9662L31.8758 42.3323C32.2417 41.9716 32.8153 41.9285 33.2311 42.2303C34.0371 42.8149 34.9024 43.3375 35.8035 43.7843C36.1079 43.9357 36.3208 44.2243 36.3744 44.5603C36.428 44.8957 36.3166 45.2369 36.0742 45.4756L22.1264 59.2131C22.0854 59.2699 22.0386 59.3235 21.9855 59.3714L21.8846 59.4628C21.5954 59.7483 21.4119 60.1694 21.3972 60.6205C21.383 61.1015 21.5597 61.5552 21.8961 61.8959C22.2252 62.2302 22.6668 62.4137 23.1389 62.4137C23.5837 62.4079 23.9848 62.2502 24.2981 61.97L24.4154 61.8538L40.7079 45.7994C40.9366 45.5744 41.2557 45.4677 41.5733 45.505C41.6731 45.5071 41.7441 45.5108 41.814 45.5187C43.1231 45.6622 44.4432 45.669 45.6917 45.5344C46.1376 45.4887 46.5629 45.7253 46.7542 46.1295C46.9456 46.5338 46.8604 47.0149 46.5418 47.3287L31.0484 62.5951C31.0415 62.6035 31.0342 62.6103 31.0263 62.6177Z" fill="#4E538D"/>
</svg>
