<svg width="72" height="72" viewBox="0 0 72 72" fill="none" xmlns="http://www.w3.org/2000/svg">
<path d="M57.3357 5.33301H14.6636C12.6493 5.33301 11.0087 6.97236 11.0087 8.98848V63.0113C11.0087 65.0268 12.6493 66.6674 14.6636 66.6674H47.2883V59.4887C47.2883 56.3235 49.863 53.7482 53.0301 53.7482H60.9912V8.98848C60.9905 6.97236 59.3506 5.33301 57.3357 5.33301ZM51.4635 38.799H20.5358V36.2826H51.4635V38.799ZM51.4635 29.9948H20.5358V27.479H51.4635V29.9948ZM51.4635 21.1931H20.5358V18.6766H51.4635V21.1931Z" fill="#C5D1FC"/>
<path d="M47.2877 68H14.6636C11.9134 68 9.67596 65.762 9.67596 63.0111V8.98826C9.67596 6.2374 11.9134 4 14.6636 4H57.3357C60.0859 4 62.324 6.2374 62.324 8.98826V53.748C62.324 54.4839 61.7272 55.0807 60.9912 55.0807H53.0295C50.5984 55.0807 48.6205 57.058 48.6205 59.4885V66.6672C48.6205 67.4038 48.0237 68 47.2877 68ZM14.663 6.66557C13.3822 6.66557 12.3409 7.70749 12.3409 8.98826V63.0111C12.3409 64.2919 13.3828 65.3344 14.663 65.3344H45.9543V59.4885C45.9543 55.5879 49.1283 52.4151 53.0289 52.4151H59.6578V8.98826C59.6578 7.70749 58.6158 6.66557 57.3357 6.66557H14.663ZM51.4635 40.1316H20.5364C19.8004 40.1316 19.2037 39.5348 19.2037 38.7988V36.2824C19.2037 35.5464 19.8004 34.9496 20.5364 34.9496H51.4635C52.1995 34.9496 52.7963 35.5464 52.7963 36.2824V38.7988C52.7957 39.5348 52.1995 40.1316 51.4635 40.1316ZM51.4635 31.3273H20.5364C19.8004 31.3273 19.2037 30.7305 19.2037 29.9946V27.4788C19.2037 26.7428 19.8004 26.146 20.5364 26.146H51.4635C52.1995 26.146 52.7963 26.7428 52.7963 27.4788V29.9946C52.7957 30.7312 52.1995 31.3273 51.4635 31.3273ZM51.4635 22.5256H20.5364C19.8004 22.5256 19.2037 21.9288 19.2037 21.1928V18.6764C19.2037 17.9404 19.8004 17.3436 20.5364 17.3436H51.4635C52.1995 17.3436 52.7963 17.9404 52.7963 18.6764V21.1928C52.7957 21.9288 52.1995 22.5256 51.4635 22.5256Z" fill="#4E538D"/>
<path d="M51.4635 36.2827H20.5358V38.7991H51.4635V36.2827Z" fill="white"/>
<path d="M51.7299 39.0654H20.2693V36.0161H51.7299V39.0654ZM20.8022 38.5325H51.1964V36.5496H20.8022V38.5325Z" fill="#4E538D"/>
<path d="M51.4635 27.4785H20.5358V29.9943H51.4635V27.4785Z" fill="white"/>
<path d="M51.7299 30.2615H20.2693V27.2129H51.7299V30.2615ZM20.8022 29.728H51.1964V27.7458H20.8022V29.728Z" fill="#4E538D"/>
<path d="M51.4635 18.6763H20.5358V21.1927H51.4635V18.6763Z" fill="white"/>
<path d="M51.7299 21.4591H20.2693V18.4092H51.7299V21.4591ZM20.8022 20.9256H51.1964V18.942H20.8022V20.9256Z" fill="#4E538D"/>
<path d="M51.2447 61.1272V66.931L61.2777 57.4717H54.9002C52.884 57.4717 51.2447 59.1117 51.2447 61.1272Z" fill="#4BE7AE"/>
<path d="M51.2447 67.8195C51.1262 67.8195 51.0065 67.7957 50.893 67.7468C50.567 67.6064 50.3564 67.286 50.3564 66.9312V61.1273C50.3564 58.6222 52.3944 56.5835 54.9002 56.5835H61.2777C61.6419 56.5835 61.9692 56.8054 62.1033 57.1439C62.2375 57.4825 62.1522 57.8686 61.887 58.1182L51.8547 67.5775C51.686 67.7361 51.4673 67.8195 51.2447 67.8195ZM54.9002 58.3601C53.3749 58.3601 52.1337 59.6014 52.1337 61.1273V64.8724L59.0403 58.3607L54.9002 58.3601Z" fill="#4E538D"/>
</svg>
