<svg width="72" height="72" viewBox="0 0 72 72" fill="none" xmlns="http://www.w3.org/2000/svg">
<path d="M9.2651 27.0721C8.16553 26.8197 6.96187 27.1206 6.09921 27.9821C4.76453 29.3179 4.75852 31.4866 6.09559 32.8236C6.10815 32.8356 6.12552 32.838 6.14167 32.8548C6.1321 32.8595 6.12432 32.8661 6.12312 32.8655L12.562 39.3038L22.7064 29.1594L9.27109 27.0237C9.26571 27.044 9.2669 27.0608 9.2651 27.0721Z" fill="#4BE7AE"/>
<path d="M12.562 40.1529C12.3449 40.1529 12.1277 40.0698 11.9626 39.9046L5.5237 33.4664C5.4896 33.4323 5.45911 33.3964 5.43219 33.3581C3.83249 31.6824 3.85762 29.0262 5.4992 27.3834C6.46596 26.4173 7.80778 25.9818 9.14127 26.187C9.22682 26.1738 9.31417 26.1732 9.40391 26.1875L22.8392 28.3233C23.1539 28.3735 23.4142 28.5961 23.5123 28.8988C23.611 29.2021 23.5308 29.5347 23.3053 29.7603L13.1609 39.9046C12.9964 40.0698 12.7792 40.1529 12.562 40.1529ZM6.85959 32.4033L12.562 38.1057L20.9314 29.7363L9.41888 27.9063C9.30581 27.9272 9.18915 27.9248 9.07488 27.8991C8.21342 27.7011 7.32441 27.9565 6.69805 28.5829C5.70976 29.5718 5.69242 31.1697 6.64781 32.176C6.68849 32.2071 6.72677 32.2406 6.75728 32.2723C6.79616 32.3124 6.83028 32.3566 6.85959 32.4033Z" fill="#4E538D"/>
<path d="M44.3759 62.4387C44.3957 62.4435 44.422 62.4417 44.4405 62.4465L42.4035 49.5879L32.3058 59.685L38.4898 65.8702C38.497 65.8631 38.5203 65.8433 38.5293 65.829C38.6173 65.9414 38.6896 66.0539 38.7878 66.1538C40.1218 67.4879 42.2922 67.4849 43.6275 66.1496C44.6344 65.1434 44.8779 63.6771 44.3759 62.4387Z" fill="#4BE7AE"/>
<path d="M41.2041 68C40.0638 68 38.9936 67.5573 38.189 66.7526C38.1369 66.7006 38.0896 66.6461 38.0448 66.5911C37.9897 66.5576 37.9377 66.5169 37.8904 66.4691L31.7064 60.2844C31.3756 59.9536 31.3756 59.4164 31.7064 59.0855L41.8041 48.9884C42.0297 48.7635 42.3629 48.6845 42.6656 48.7814C42.9689 48.8801 43.1908 49.1404 43.2411 49.455L45.2775 62.3137C45.2859 62.3669 45.2895 62.4207 45.2877 62.474C45.7507 63.9804 45.3535 65.6232 44.2276 66.7484C43.4218 67.5543 42.3497 67.9988 41.2089 68C41.2077 68 41.2059 68 41.2041 68ZM38.8727 65.0536C38.9977 65.1087 39.1096 65.1942 39.1964 65.3049L39.2915 65.4305C39.3232 65.4736 39.3513 65.5173 39.3896 65.5555C39.8718 66.0377 40.5167 66.3039 41.2035 66.3039C41.2047 66.3039 41.2053 66.3039 41.2065 66.3039C41.895 66.3033 42.5424 66.0353 43.0281 65.549C43.7598 64.8173 43.9799 63.7207 43.5893 62.7564C43.5223 62.5913 43.5103 62.413 43.5492 62.2461L41.8257 51.364L33.5041 59.685L38.8727 65.0536Z" fill="#4E538D"/>
<path d="M33.5448 40.8816L30.727 38.0645C30.249 37.5865 29.6239 37.3454 28.9945 37.3418C28.3664 37.3454 27.7406 37.5799 27.2608 38.0609L22.0777 43.2428L21.291 44.0295C20.8118 44.5093 20.5767 45.1363 20.5725 45.7633C20.5749 46.3938 20.8165 47.0184 21.2945 47.4964L24.1117 50.3129C24.5915 50.7927 25.2142 51.0326 25.8418 51.0326C26.4729 51.0308 27.0963 50.7945 27.5755 50.3153L33.5454 44.3454C34.0252 43.8656 34.2627 43.2423 34.2633 42.6117C34.2633 41.9853 34.024 41.362 33.5448 40.8816Z" fill="#4BE7AE"/>
<path d="M58.8277 31.8911L58.8558 31.9204L66.1741 9.96136C66.2818 9.72625 66.3584 9.48875 66.4092 9.23749L66.4128 9.22672C66.621 8.18039 66.3255 7.04971 65.5119 6.2349C64.6689 5.39198 63.479 5.10662 62.3986 5.36686L62.3944 5.36147L62.3537 5.37343C62.191 5.4177 62.0373 5.46856 61.8823 5.53376L40.4874 12.5841C39.7414 12.748 39.0211 13.0477 38.4414 13.6268L23.2634 28.8054L12.3449 39.7239L10.4987 41.5695C8.88284 43.1853 8.88163 45.808 10.5041 47.4299L13.0113 49.9377L12.3801 51.1707L20.3673 59.1572L21.6014 58.5279L24.1799 61.1069C25.7993 62.7257 28.4208 62.7257 30.0379 61.1081L31.8834 59.2625L42.7469 48.399L57.98 33.166C58.3575 32.7897 58.6261 32.3518 58.8277 31.8911ZM28.3419 51.0798C26.9677 52.4551 24.7279 52.4611 23.3459 51.0798L20.5288 48.2626C19.1505 46.8837 19.1529 44.6403 20.5276 43.2661L21.3143 42.48L26.4975 37.2968C27.8746 35.9197 30.115 35.9197 31.494 37.2986L34.3111 40.1158C35.6924 41.4971 35.6889 43.7327 34.3111 45.1105L28.3419 51.0798ZM39.0312 32.5803C36.5461 30.0952 36.5479 26.0732 39.033 23.5893C41.5151 21.1066 45.536 21.106 48.0211 23.5905C50.5026 26.0714 50.5026 30.0934 48.0199 32.5755C45.5354 35.0606 41.5128 35.0612 39.0312 32.5803Z" fill="#C5D1FC"/>
<path d="M27.1113 63.5933C25.6647 63.5933 24.3049 63.0298 23.2819 62.0074L21.3562 60.0817L20.9458 60.291C20.4546 60.5417 19.8588 60.4472 19.4687 60.0571L11.4816 52.0706C11.0915 51.6805 10.997 51.0829 11.2489 50.5917L11.4583 50.1825L9.60549 48.3298C8.58129 47.3056 8.01658 45.9452 8.01538 44.4986C8.01478 43.0527 8.57712 41.6929 9.60012 40.6711L37.5416 12.7284C38.217 12.0536 39.0701 11.6049 40.1476 11.3578L61.4396 4.34103C61.6221 4.26685 61.8123 4.20343 62.0193 4.1472C62.0666 4.13464 62.1144 4.12387 62.1629 4.11669C63.7111 3.76492 65.2941 4.21899 66.4116 5.33651C67.4938 6.41873 67.9611 7.96578 67.6607 9.47515C67.6554 9.50207 67.6494 9.52838 67.6422 9.5553C67.5764 9.85801 67.4837 10.1428 67.3604 10.424L60.0625 32.3238C60.0122 32.474 59.9356 32.611 59.8381 32.7294C59.5761 33.2451 59.2608 33.6848 58.8797 34.0665L30.9376 62.0086C29.9164 63.0304 28.5572 63.5933 27.1113 63.5933ZM21.6021 57.2568C21.9317 57.2568 22.2571 57.3848 22.5018 57.6295L25.0808 60.2085C25.6234 60.7511 26.3449 61.0502 27.1113 61.0502C27.8776 61.0502 28.5973 60.7517 29.1387 60.2103L57.0808 32.2682C57.3123 32.0366 57.5032 31.7465 57.6629 31.3816C57.6886 31.3235 57.7179 31.2685 57.7509 31.2159L64.9674 9.5601C64.9818 9.51702 64.9985 9.47455 65.0177 9.43327C65.0829 9.29029 65.1308 9.14372 65.1631 8.98519C65.1667 8.96784 65.1703 8.95047 65.1744 8.93372C65.2899 8.27446 65.0817 7.60563 64.6121 7.1366C64.1114 6.63587 63.3958 6.43726 62.6965 6.60536C62.6726 6.61135 62.6486 6.61615 62.6247 6.62033C62.5392 6.64546 62.4572 6.67358 62.3741 6.70828C62.3429 6.72144 62.3119 6.7334 62.2796 6.74357L40.8846 13.7939C40.8433 13.8076 40.8021 13.819 40.7596 13.8279C40.1308 13.9661 39.6791 14.1887 39.3393 14.5285L11.3978 42.4706C10.8558 43.012 10.5579 43.7323 10.5585 44.4981C10.5585 45.2656 10.8588 45.9877 11.4032 46.5321L13.911 49.0399C14.3011 49.43 14.3956 50.0276 14.1438 50.5188L13.9344 50.928L20.6132 57.6061L21.0235 57.3967C21.2078 57.3022 21.4058 57.2568 21.6021 57.2568ZM25.8436 53.3855C24.5604 53.3855 23.3543 52.886 22.4468 51.9791L19.629 49.1619C17.7553 47.2871 17.7554 44.239 19.6285 42.3665L25.5977 36.3972C26.504 35.4909 27.7101 34.992 28.9933 34.992H28.9945C30.2784 34.992 31.4856 35.4921 32.3926 36.3996L35.2097 39.2162C37.0822 41.0893 37.0822 44.1373 35.2097 46.0098L29.2404 51.9785C28.3353 52.8842 27.1298 53.3837 25.8472 53.3849C25.8472 53.3849 25.8448 53.3855 25.8436 53.3855ZM28.9933 37.5363C28.3891 37.5363 27.822 37.7708 27.3966 38.1962L21.4268 44.166C20.5455 45.0466 20.5461 46.4812 21.4285 47.3636L24.2457 50.1801C24.6722 50.6067 25.24 50.8412 25.8442 50.8412H25.846C26.4502 50.8406 27.0173 50.6061 27.4421 50.1808H27.4427L33.4119 44.2115C34.2932 43.3303 34.2932 41.8963 33.4119 41.0151L30.5942 38.1986C30.1677 37.7714 29.5994 37.5363 28.9945 37.5363H28.9933ZM43.5217 35.7117C41.4859 35.7117 39.5715 34.919 38.1321 33.4796C36.6903 32.0373 35.8964 30.1211 35.897 28.0841C35.8976 26.0471 36.6921 24.1315 38.1345 22.6897C39.5751 21.2486 41.4894 20.4553 43.5258 20.4553H43.527C45.5635 20.4559 47.479 21.2497 48.9214 22.6915C50.3613 24.1315 51.1546 26.0458 51.1546 28.0829C51.154 30.1193 50.3608 32.0343 48.9202 33.4754C47.4784 34.9172 45.5629 35.7117 43.5253 35.7123C43.5241 35.7117 43.5229 35.7117 43.5217 35.7117ZM43.5258 22.9984C42.169 22.9984 40.893 23.5272 39.9328 24.488C38.9708 25.45 38.4408 26.7273 38.4408 28.0847C38.4408 29.4427 38.9696 30.7193 39.931 31.6807C40.8906 32.6403 42.1654 33.1679 43.5223 33.1679C43.5223 33.1679 43.5234 33.1679 43.5246 33.1679C44.8826 33.1673 46.1599 32.6373 47.1213 31.6759C48.0815 30.7157 48.6109 29.4391 48.6109 28.0823C48.6109 26.7255 48.0826 25.4494 47.1231 24.4898C46.1605 23.5285 44.8838 22.999 43.5258 22.9984Z" fill="#242326"/>
</svg>
