<svg width="72" height="72" viewBox="0 0 72 72" fill="none" xmlns="http://www.w3.org/2000/svg">
<path d="M45.1014 14.9153C45.1014 16.4233 43.8789 17.6457 42.371 17.6457H29.6291C28.1211 17.6457 26.8987 16.4233 26.8987 14.9153V7.93742C26.8987 6.42943 28.1211 5.20703 29.6291 5.20703H42.371C43.8789 5.20703 45.1014 6.42943 45.1014 7.93742V14.9153Z" fill="#4BE7AE"/>
<path d="M42.371 18.8528H29.6291C27.4579 18.8528 25.6916 17.0865 25.6916 14.9153V7.93747C25.6916 5.76633 27.4579 4 29.6291 4H42.371C44.5421 4 46.3084 5.76633 46.3084 7.93747V14.9153C46.3084 17.0871 44.5421 18.8528 42.371 18.8528ZM29.6291 6.41473C28.7894 6.41473 28.1058 7.09831 28.1058 7.93804V14.9159C28.1058 15.7562 28.7894 16.4393 29.6291 16.4393H42.371C43.2107 16.4393 43.8943 15.7557 43.8943 14.9159V7.93804C43.8943 7.09831 43.2107 6.41473 42.371 6.41473H29.6291Z" fill="#4E538D"/>
<path d="M43.8875 21.2861H29.0222L27.2161 28.511L44.9424 26.1468L43.8875 21.2861Z" fill="#4BE7AE"/>
<path d="M27.2161 29.718C26.8749 29.718 26.5467 29.5732 26.3162 29.3149C26.0499 29.0168 25.9483 28.6058 26.0454 28.218L27.8515 20.9937C27.986 20.4566 28.4686 20.0796 29.0227 20.0796H43.8875C44.4553 20.0796 44.947 20.4753 45.0673 21.0306L46.1217 25.8913C46.1932 26.2206 46.1239 26.5652 45.9298 26.8406C45.7362 27.1165 45.4358 27.2988 45.102 27.3436L27.3757 29.7072C27.3223 29.7141 27.2689 29.718 27.2161 29.718ZM29.9641 22.4937L28.8178 27.0796L43.4849 25.1236L42.9143 22.4937H29.9641Z" fill="#4E538D"/>
<path d="M36 66.7938L50.8654 53.445L50.4872 51.7031L24.4295 55.9313L36 66.7938Z" fill="#4BE7AE"/>
<path d="M36.0001 68.0002C35.7031 68.0002 35.4062 67.8912 35.1739 67.6731L23.6034 56.8112C23.2679 56.4966 23.1407 56.0186 23.2752 55.5785C23.4098 55.1385 23.7823 54.8132 24.2365 54.7394L50.2948 50.5112C50.9267 50.409 51.5314 50.8195 51.6676 51.4469L52.0452 53.1882C52.1372 53.6118 51.9947 54.0524 51.6722 54.3425L36.8069 67.6913C36.5769 67.8974 36.2885 68.0002 36.0001 68.0002ZM27.0435 56.73L36.0177 65.1545L49.4482 53.0945L27.0435 56.73Z" fill="#4E538D"/>
<path d="M46.9602 35.4463L24.5742 39.0783L22.8636 45.9216L48.4915 42.5036L46.9602 35.4463Z" fill="#4BE7AE"/>
<path d="M22.8636 47.1285C22.5223 47.1285 22.1942 46.9837 21.9637 46.726C21.6974 46.4279 21.5958 46.0168 21.6929 45.629L23.4035 38.7863C23.5205 38.3184 23.9049 37.9647 24.3812 37.8875L46.7672 34.2549C47.4014 34.1505 48.0038 34.5632 48.1401 35.1906L49.6713 42.2485C49.7429 42.5778 49.6731 42.9219 49.4794 43.1978C49.2858 43.4738 48.9855 43.656 48.6516 43.7009L23.0237 47.1188C22.9698 47.1245 22.9164 47.1285 22.8636 47.1285ZM25.552 40.1427L24.4653 44.4901L47.0341 41.4803L46.0229 36.8207L25.552 40.1427Z" fill="#4E538D"/>
<path d="M44.9424 26.147L27.2161 28.5112L24.5742 39.0779L46.9602 35.4459L44.9424 26.147Z" fill="#C5D1FC"/>
<path d="M24.5742 40.2848C24.2392 40.2848 23.9162 40.1451 23.6857 39.8947C23.4109 39.5961 23.3047 39.1788 23.4035 38.7848L26.0453 28.2175C26.1651 27.7371 26.566 27.3789 27.0565 27.3136L44.7828 24.9494C45.4074 24.8653 45.9888 25.2758 46.1222 25.8902L48.14 35.1885C48.2099 35.5121 48.1446 35.8505 47.9578 36.1242C47.771 36.3979 47.4809 36.5829 47.1532 36.6358L24.7673 40.2683C24.7031 40.2802 24.6384 40.2848 24.5742 40.2848ZM28.1881 29.5988L26.1896 37.593L45.5107 34.4578L43.9987 27.4907L28.1881 29.5988Z" fill="#4E538D"/>
<path d="M22.8636 45.9214L21.1342 52.8379L24.4295 55.9312L50.4872 51.703L48.4915 42.5034L22.8636 45.9214Z" fill="#C5D1FC"/>
<path d="M24.4295 57.1387C24.1246 57.1387 23.8288 57.0234 23.6034 56.8117L20.3081 53.7185C19.989 53.4192 19.8573 52.9701 19.9634 52.546L21.6923 45.6289C21.8121 45.1486 22.2129 44.7903 22.7035 44.725L48.3314 41.307C48.9565 41.2241 49.5373 41.6335 49.6708 42.2478L51.667 51.4474C51.7369 51.771 51.6716 52.1094 51.4848 52.3831C51.298 52.6567 51.0079 52.8418 50.6803 52.8946L24.622 57.1228C24.5584 57.1336 24.4937 57.1387 24.4295 57.1387ZM22.4769 52.4432L24.8224 54.6451L49.0377 50.7155L47.5473 43.8472L23.835 47.0097L22.4769 52.4432Z" fill="#4E538D"/>
</svg>
