<svg width="72" height="72" viewBox="0 0 72 72" fill="none" xmlns="http://www.w3.org/2000/svg">
<path d="M24.2392 52.4297C21.8843 53.4628 19.6548 54.7438 17.6021 56.2465C21.8896 60.6441 27.4788 63.5803 33.4843 64.6087C29.5558 61.1715 26.4492 57.0798 24.2392 52.4297Z" fill="#C5D1FC"/>
<path d="M20.6406 38.1294L9.43208 38.1365C9.87562 44.2266 12.1832 49.9092 16.123 54.6107C17.9108 56.7438 20.7909 51.5432 23.3592 50.4178C21.7826 46.5223 20.8677 42.3927 20.6406 38.1294Z" fill="#C5D1FC"/>
<path d="M25.3965 49.5939C29.1938 48.1858 33.1881 47.388 37.2793 47.223V38.1216L22.8388 38.1293C23.0653 42.1046 23.9246 45.9568 25.3965 49.5939Z" fill="#C5D1FC"/>
<path d="M37.2793 64.8472V49.418C33.5039 49.5771 29.8083 50.3127 26.2836 51.6049C28.771 56.7819 32.563 61.3474 37.2793 64.8472Z" fill="#C5D1FC"/>
<path d="M33.4873 7.39062C26.9631 8.50243 21.0114 11.8248 16.5956 16.841C18.7411 18.5388 21.0747 19.9865 23.5384 21.1492C25.7354 15.9143 29.1583 11.1855 33.4873 7.39062Z" fill="#C5D1FC"/>
<path d="M22.769 35.9331L37.2793 35.9242V26.7311C32.9592 26.5548 28.7527 25.6636 24.7656 24.0781C23.4479 27.8736 22.7767 31.8608 22.769 35.9331Z" fill="#C5D1FC"/>
<path d="M22.7406 23.2021C20.0658 21.9537 17.5335 20.3883 15.207 18.542C11.3854 23.5995 9.36051 29.6056 9.3475 35.94L20.5714 35.9329C20.5791 31.5555 21.3083 27.2732 22.7406 23.2021Z" fill="#C5D1FC"/>
<path d="M42.8631 64.6743C49.2193 63.6855 55.0877 60.5855 59.5266 55.8656C57.3219 54.3132 54.928 53.0122 52.3992 51.9956C50.1697 56.8503 46.965 61.1101 42.8631 64.6743Z" fill="#C5D1FC"/>
<path d="M53.2449 49.9695C55.9883 51.0742 58.5863 52.4976 60.9761 54.2032C64.7113 49.5774 66.9017 44.0231 67.3264 38.1045L55.7849 38.111C55.5678 42.2152 54.7139 46.2023 53.2449 49.9695Z" fill="#C5D1FC"/>
<path d="M55.8523 35.915L67.4086 35.9091C67.3891 29.7812 65.4813 23.9383 61.8833 18.9849C59.403 20.8749 56.6986 22.4527 53.8422 23.6799C55.1681 27.6102 55.8434 31.7251 55.8523 35.915Z" fill="#C5D1FC"/>
<path d="M25.555 22.0222C29.2979 23.5143 33.2383 24.357 37.2792 24.5321V7.15186C32.0579 11.0248 28.014 16.1539 25.555 22.0222Z" fill="#C5D1FC"/>
<path d="M39.4769 7.40283V24.5584C43.4397 24.488 47.3263 23.7742 51.0396 22.4288C48.6487 16.5185 44.6639 11.3397 39.4769 7.40283Z" fill="#C5D1FC"/>
<path d="M53.0829 21.6158C55.7193 20.4745 58.2208 19.0102 60.529 17.2561C55.9801 11.8876 49.7527 8.39247 42.8607 7.32324C47.3624 11.2465 50.8788 16.1603 53.0829 21.6158Z" fill="#C5D1FC"/>
<path d="M51.7954 24.4897C47.8331 25.9256 43.6911 26.6879 39.4769 26.7583V35.9242L53.6571 35.9153C53.6471 32.0086 53.0208 28.1664 51.7954 24.4897Z" fill="#C5D1FC"/>
<path d="M39.4769 49.3896V64.5977C44.1648 61.0399 47.9006 56.4366 50.3246 51.2336C46.8313 50.0751 43.186 49.4547 39.4769 49.3896Z" fill="#C5D1FC"/>
<path d="M53.5873 38.1128L39.4769 38.1199V47.1982C43.4841 47.2633 47.418 47.9393 51.1822 49.2084C52.5619 45.6796 53.3697 41.9503 53.5873 38.1128Z" fill="#C5D1FC"/>
<path d="M33.4849 65.1991C33.4518 65.1991 33.4181 65.1962 33.385 65.1909C27.2807 64.1459 21.5253 61.1156 17.1798 56.6589C17.0598 56.5365 16.9994 56.3674 17.0136 56.1971C17.0278 56.0261 17.1154 55.87 17.2537 55.7689C19.3348 54.2449 21.6052 52.9391 24.0026 51.8876C24.296 51.7587 24.6372 51.8864 24.7744 52.175C26.9471 56.7476 30.0087 60.7809 33.8746 64.163C34.0739 64.3369 34.1331 64.6231 34.0195 64.862C33.9196 65.0702 33.7096 65.1991 33.4849 65.1991ZM18.5134 56.3207C22.1155 59.837 26.6503 62.3658 31.5085 63.587C28.4008 60.5532 25.8673 57.0705 23.9577 53.2035C22.0428 54.0811 20.216 55.1272 18.5134 56.3207Z" fill="#4E538D"/>
<path d="M16.1236 55.2011C15.9545 55.2011 15.7866 55.1284 15.67 54.9894C11.6551 50.1992 9.29433 44.3858 8.84251 38.1787C8.83068 38.0148 8.88743 37.8534 8.9992 37.7333C9.11097 37.6127 9.26769 37.5447 9.43209 37.5447L20.6406 37.5376C20.9552 37.5376 21.2143 37.7836 21.2314 38.0976C21.455 42.2899 22.3551 46.3605 23.908 50.195C24.0281 50.4919 23.8903 50.8302 23.5976 50.9585C21.0759 52.0632 18.6802 53.4518 16.4761 55.0852C16.3702 55.1627 16.2466 55.2011 16.1236 55.2011ZM10.0755 38.7269C10.6019 44.264 12.719 49.4534 16.226 53.803C18.2207 52.3707 20.3609 51.1306 22.6017 50.1081C21.1948 46.4799 20.3491 42.6549 20.0841 38.7204L10.0755 38.7269Z" fill="#4E538D"/>
<path d="M25.3965 50.1848C25.1624 50.1848 24.9412 50.0447 24.8483 49.8152C23.3527 46.1214 22.4781 42.2006 22.248 38.1626C22.2386 38.0005 22.2971 37.8414 22.4083 37.7231C22.5201 37.6049 22.6756 37.5375 22.8382 37.5375L37.2787 37.5298C37.4354 37.5298 37.5856 37.5925 37.6968 37.703C37.808 37.8142 37.8701 37.9645 37.8701 38.1212V47.2226C37.8701 47.5401 37.6193 47.801 37.3023 47.8134C33.2791 47.9754 29.3429 48.7608 25.6018 50.1476C25.535 50.1724 25.4651 50.1848 25.3965 50.1848ZM23.4704 38.7196C23.7294 42.2159 24.4905 45.6152 25.7354 48.8412C29.253 47.5963 32.9314 46.8624 36.6879 46.6584V38.7126L23.4704 38.7196Z" fill="#4E538D"/>
<path d="M37.2793 65.439C37.1545 65.439 37.0309 65.4 36.9268 65.3225C32.1389 61.7701 28.2748 57.1153 25.7508 51.8614C25.6786 51.7112 25.6733 51.5373 25.736 51.3824C25.7993 51.2281 25.9241 51.1074 26.0808 51.0494C29.6634 49.736 33.4222 48.9879 37.255 48.827C37.4159 48.8217 37.5732 48.8791 37.6891 48.9908C37.8056 49.102 37.8713 49.2564 37.8713 49.4178V64.847C37.8713 65.0706 37.7453 65.2752 37.546 65.3751C37.4614 65.4177 37.3703 65.439 37.2793 65.439ZM27.108 51.9395C29.376 56.4328 32.6647 60.4507 36.6885 63.6471V50.0399C33.4116 50.2339 30.1945 50.872 27.108 51.9395Z" fill="#4E538D"/>
<path d="M23.5384 21.7404C23.4521 21.7404 23.3657 21.7215 23.2859 21.6836C20.782 20.502 18.4069 19.0283 16.2283 17.3044C16.1011 17.2039 16.0207 17.0554 16.0059 16.894C15.9917 16.7325 16.0438 16.5717 16.1514 16.4505C20.63 11.3634 26.7514 7.93866 33.3879 6.80793C33.6475 6.76121 33.9072 6.89782 34.0213 7.13674C34.1349 7.37566 34.0763 7.66129 33.877 7.83575C29.6232 11.5644 26.2369 16.2476 24.0831 21.3785C24.021 21.5275 23.9003 21.644 23.7495 21.702C23.6821 21.7274 23.61 21.7404 23.5384 21.7404ZM17.4601 16.7639C19.2674 18.1424 21.2066 19.3447 23.2386 20.3483C25.1842 15.9229 28.0205 11.8388 31.5221 8.40643C26.1553 9.74474 21.2397 12.6585 17.4601 16.7639Z" fill="#4E538D"/>
<path d="M22.769 36.524C22.6117 36.524 22.4615 36.4613 22.3503 36.3501C22.2391 36.2389 22.1771 36.0881 22.1776 35.9314C22.1853 31.7929 22.8678 27.7395 24.2067 23.8837C24.2599 23.7311 24.3729 23.6069 24.5195 23.5401C24.6668 23.4727 24.8342 23.4685 24.9844 23.5283C28.907 25.0878 33.0521 25.9666 37.3035 26.1404C37.6205 26.1528 37.8713 26.4137 37.8713 26.7312V35.9243C37.8713 36.2508 37.6069 36.5151 37.2799 36.5157L22.769 36.524ZM25.1281 24.853C24.0228 28.2251 23.4308 31.7474 23.3663 35.3412L36.6879 35.3329V27.2948C32.7102 27.0748 28.8272 26.2546 25.1281 24.853Z" fill="#4E538D"/>
<path d="M9.34752 36.5312C9.19022 36.5312 9.04003 36.4691 8.92885 36.3573C8.81767 36.2461 8.75555 36.0953 8.75614 35.9386C8.76974 29.4836 10.8373 23.3445 14.7351 18.1852C14.8309 18.0581 14.974 17.9752 15.1325 17.9551C15.2904 17.9344 15.4501 17.9794 15.5743 18.0788C17.8605 19.8925 20.3556 21.436 22.9908 22.6661C23.2664 22.795 23.3994 23.1114 23.2989 23.3983C21.889 27.4055 21.1705 31.6226 21.1634 35.9338C21.1628 36.2597 20.8985 36.5241 20.572 36.5241L9.34752 36.5312ZM15.3217 19.3815C11.9266 24.0724 10.0761 29.5682 9.94602 35.3484L19.9854 35.3419C20.0516 31.2832 20.7317 27.3079 22.0097 23.5094C19.6512 22.3681 17.4058 20.9818 15.3217 19.3815Z" fill="#4E538D"/>
<path d="M42.8626 65.2655C42.6355 65.2655 42.4244 65.1342 42.3268 64.9231C42.2156 64.6842 42.2765 64.4003 42.4752 64.2276C46.512 60.7201 49.67 56.5213 51.8617 51.7482C51.993 51.462 52.3265 51.3277 52.6198 51.4466C55.1853 52.478 57.6235 53.8015 59.8667 55.3817C60.0068 55.4804 60.0973 55.6348 60.1145 55.8051C60.1316 55.9754 60.0742 56.1452 59.9566 56.2699C55.4508 61.0613 49.4122 64.2536 42.9536 65.2584C42.9235 65.2637 42.8927 65.2655 42.8626 65.2655ZM52.6955 52.7571C50.7439 56.846 48.0963 60.5155 44.8064 63.6954C50.01 62.483 54.8346 59.7869 58.6171 55.9571C56.7601 54.7051 54.773 53.6312 52.6955 52.7571Z" fill="#4E538D"/>
<path d="M60.9761 54.7946C60.8566 54.7946 60.7366 54.7586 60.6325 54.6847C58.2817 53.0063 55.7216 51.6047 53.0237 50.5183C52.7233 50.3971 52.576 50.0571 52.6937 49.7549C54.1391 46.0481 54.9806 42.1201 55.1947 38.0797C55.2113 37.7663 55.4703 37.5203 55.7849 37.5197L67.3264 37.5132C67.4902 37.5132 67.6469 37.5812 67.7593 37.7012C67.8711 37.8213 67.9278 37.9827 67.9166 38.1465C67.4837 44.1793 65.2429 49.8601 61.4362 54.5741C61.3203 54.719 61.1494 54.7946 60.9761 54.7946ZM54.003 49.6413C56.4171 50.6567 58.7188 51.9176 60.8596 53.3978C64.1755 49.1268 66.1797 44.0675 66.6847 38.696L56.3432 38.7019C56.0889 42.4749 55.3035 46.1498 54.003 49.6413Z" fill="#4E538D"/>
<path d="M55.8523 36.5062C55.5265 36.5062 55.2615 36.2424 55.2609 35.916C55.2515 31.7881 54.5862 27.7354 53.2822 23.8683C53.1834 23.5761 53.326 23.258 53.6092 23.1362C56.4236 21.9274 59.0866 20.372 61.5249 18.5145C61.6515 18.4181 61.8111 18.3755 61.969 18.3997C62.1269 18.4228 62.2683 18.5086 62.3617 18.6369C66.0301 23.6873 67.9799 29.6591 68 35.9065C68.0006 36.0639 67.9385 36.2146 67.8273 36.3258C67.7161 36.437 67.5659 36.4997 67.4086 36.4997L55.8523 36.5062ZM54.5726 24.0055C55.7459 27.6526 56.3722 31.454 56.4378 35.3228L66.8089 35.3175C66.677 29.7354 64.9366 24.4017 61.7526 19.8214C59.5177 21.4696 57.1073 22.8742 54.5726 24.0055Z" fill="#4E538D"/>
<path d="M37.2793 25.1239C37.271 25.1239 37.2621 25.1233 37.2533 25.1233C33.1461 24.9453 29.1365 24.0872 25.3357 22.572C25.1878 22.5135 25.0707 22.3982 25.0092 22.2515C24.9477 22.1048 24.9477 21.9404 25.0092 21.7944C27.506 15.835 31.6268 10.6083 36.9268 6.67738C37.1066 6.54373 37.3455 6.52303 37.5448 6.62416C37.7441 6.72469 37.8701 6.92872 37.8701 7.15227V24.5325C37.8701 24.6939 37.8044 24.8483 37.6873 24.9595C37.5785 25.0653 37.4319 25.1239 37.2793 25.1239ZM26.3404 21.6933C29.6569 22.95 33.1325 23.6939 36.6885 23.9098V8.35159C32.1745 11.9342 28.6184 16.5169 26.3404 21.6933Z" fill="#4E538D"/>
<path d="M39.4769 25.1494C39.3219 25.1494 39.1729 25.0885 39.0623 24.9796C38.9493 24.8685 38.8855 24.7165 38.8855 24.558V7.40249C38.8855 7.17777 39.0126 6.97256 39.2137 6.87261C39.4153 6.77208 39.6555 6.79514 39.8341 6.93116C45.0962 10.926 49.1608 16.2076 51.5873 22.206C51.6476 22.3551 51.6446 22.5219 51.579 22.6685C51.5133 22.8152 51.3915 22.9287 51.2401 22.9837C47.4724 24.3486 43.5184 25.0766 39.4863 25.1488C39.4839 25.1494 39.4804 25.1494 39.4769 25.1494ZM40.0682 8.61898V23.9506C43.5539 23.83 46.9739 23.2008 50.2537 22.0777C48.0384 16.8759 44.5379 12.253 40.0682 8.61898Z" fill="#4E538D"/>
<path d="M53.0829 22.2071C53.0066 22.2071 52.9303 22.1923 52.8587 22.1628C52.7109 22.1019 52.5944 21.9848 52.5347 21.8369C50.3731 16.4867 46.894 11.6219 42.4722 7.76847C42.2741 7.59578 42.2132 7.31192 42.3244 7.073C42.4356 6.83467 42.6922 6.70042 42.9512 6.73827C49.9609 7.82583 56.3633 11.425 60.9796 16.8734C61.0849 16.997 61.134 17.1585 61.1162 17.3199C61.0985 17.4808 61.0157 17.6281 60.8862 17.7262C58.5449 19.5063 55.9978 20.9972 53.3176 22.158C53.2425 22.1912 53.1627 22.2071 53.0829 22.2071ZM44.7922 8.29775C48.4748 11.8768 51.4222 16.165 53.3975 20.8298C55.5992 19.831 57.7028 18.6003 59.6656 17.1626C55.7269 12.716 50.5216 9.62186 44.7922 8.29775Z" fill="#4E538D"/>
<path d="M39.4769 36.515C39.3201 36.515 39.1699 36.4523 39.0588 36.3417C38.9476 36.2305 38.8855 36.0803 38.8855 35.9236V26.7577C38.8855 26.4348 39.1445 26.1717 39.4668 26.1663C43.6154 26.0971 47.6953 25.3455 51.5938 23.9333C51.7434 23.88 51.9096 23.8877 52.0527 23.9569C52.1964 24.0261 52.3058 24.1509 52.3561 24.3017C53.6015 28.0375 54.2378 31.9442 54.2479 35.913C54.2479 36.0703 54.1864 36.2211 54.0752 36.3323C53.964 36.4434 53.8138 36.5061 53.6565 36.5061L39.4769 36.515ZM40.0682 27.3349V35.3316L53.0592 35.3234C52.9947 31.8868 52.4442 28.5035 51.4205 25.2485C47.7568 26.5117 43.9436 27.2125 40.0682 27.3349Z" fill="#4E538D"/>
<path d="M39.4769 65.1893C39.387 65.1893 39.2971 65.1691 39.2137 65.1277C39.0126 65.0284 38.8855 64.8226 38.8855 64.5979V49.3898C38.8855 49.2313 38.9493 49.0793 39.0623 48.9682C39.1753 48.857 39.3255 48.796 39.4869 48.7984C43.2517 48.8646 46.9602 49.4951 50.5103 50.6725C50.6706 50.7257 50.8001 50.8446 50.8669 50.9996C50.9338 51.1545 50.9314 51.3307 50.8598 51.4833C48.4003 56.7632 44.5876 61.4612 39.8341 65.0686C39.7294 65.1485 39.6034 65.1893 39.4769 65.1893ZM40.0682 49.9966V63.3808C44.0506 60.1424 47.2879 56.0967 49.4991 51.5898C46.4481 50.6412 43.2812 50.106 40.0682 49.9966Z" fill="#4E538D"/>
<path d="M51.1822 49.7994C51.1195 49.7994 51.0556 49.7893 50.9935 49.7686C47.2891 48.519 43.4108 47.8531 39.4674 47.7892C39.1445 47.7839 38.8855 47.5207 38.8855 47.1978V38.1195C38.8855 37.793 39.1498 37.5281 39.4769 37.5281L53.5873 37.521C53.7499 37.521 53.9055 37.5878 54.0173 37.7061C54.129 37.8244 54.1876 37.9835 54.1781 38.1461C53.9563 42.0457 53.1343 45.84 51.7327 49.4232C51.6422 49.6556 51.4193 49.7994 51.1822 49.7994ZM40.0682 46.62C43.7425 46.7336 47.3577 47.3551 50.8309 48.4699C51.9935 45.3503 52.7068 42.0705 52.9563 38.7043L40.0682 38.7109V46.62Z" fill="#4E538D"/>
<path d="M24.6337 18.2684C21.5354 17.6806 18.8706 20.3459 19.4561 23.443C19.7837 25.1746 21.1794 26.5715 22.9104 26.9003C26.0086 27.4899 28.6764 24.8233 28.0891 21.7239C27.7609 19.9923 26.3641 18.5966 24.6337 18.2684Z" fill="#4BE7AE"/>
<path d="M23.7738 28.1653C23.413 28.1653 23.0481 28.1304 22.6886 28.0624C20.478 27.6425 18.7115 25.8749 18.2934 23.6631C17.9794 22.0001 18.4093 20.3105 19.4732 19.026C20.7672 17.4648 22.8293 16.7243 24.8531 17.1064C27.0648 17.5263 28.8319 19.2933 29.2506 21.5039C29.5658 23.1675 29.1364 24.8583 28.0714 26.144C27.0075 27.4285 25.4409 28.1653 23.7738 28.1653ZM23.7732 19.3696C22.8122 19.3696 21.9085 19.7943 21.2947 20.5353C20.6725 21.2863 20.4324 22.2408 20.6181 23.2231C20.8535 24.4674 21.8866 25.5017 23.1309 25.7383C23.3456 25.7791 23.5621 25.7998 23.7738 25.7998C24.7336 25.7998 25.6361 25.3752 26.2499 24.6347C26.8726 23.8831 27.1127 22.9274 26.9264 21.9445C26.6911 20.7003 25.6573 19.6671 24.4131 19.4311C24.2002 19.3903 23.9843 19.3696 23.7732 19.3696Z" fill="#4E538D"/>
<path d="M10.4369 32.8602C7.33977 32.2759 4.67736 34.9425 5.26343 38.0384C5.59105 39.7694 6.98613 41.1645 8.71652 41.4939C11.8177 42.0835 14.4866 39.4134 13.8953 36.3121C13.5647 34.5817 12.1684 33.1867 10.4369 32.8602Z" fill="#4BE7AE"/>
<path d="M9.57993 42.7585C9.21977 42.7585 8.85431 42.7236 8.49533 42.6556C6.28474 42.2351 4.51888 40.4681 4.10077 38.258C3.78615 36.5951 4.21607 34.9037 5.28116 33.6186C6.57452 32.058 8.63431 31.3164 10.6563 31.6978C12.8663 32.1154 14.6351 33.88 15.0568 36.0901C15.3744 37.7542 14.9456 39.4468 13.8811 40.7336C12.8166 42.0205 11.2488 42.7585 9.57993 42.7585ZM9.57935 33.9617C8.61953 33.9617 7.71649 34.3868 7.10263 35.1272C6.4799 35.8795 6.23921 36.8346 6.42491 37.8181C6.66028 39.0618 7.69342 40.0949 8.93711 40.3315C9.15119 40.3723 9.36704 40.393 9.57935 40.393C10.5409 40.393 11.444 39.9672 12.0578 39.2256C12.6806 38.4727 12.9201 37.517 12.7326 36.533C12.4949 35.2893 11.4605 34.2568 10.2169 34.022C10.0046 33.9824 9.78988 33.9617 9.57935 33.9617Z" fill="#4E538D"/>
<path d="M52.2218 46.0548C49.123 45.4658 46.4552 48.1335 47.0436 51.2329C47.3718 52.9645 48.7675 54.3602 50.4985 54.6884C53.5968 55.2745 56.2622 52.6097 55.6761 49.5114C55.3485 47.7799 53.9528 46.3842 52.2218 46.0548Z" fill="#4E538D"/>
<path d="M51.3584 55.9529C50.9994 55.9529 50.6363 55.9186 50.2785 55.8512C48.0673 55.4319 46.3003 53.6648 45.8816 51.4537C45.5658 49.7907 45.9951 48.0993 47.059 46.8142C48.3529 45.2512 50.4175 44.509 52.4418 44.8934C54.653 45.3139 56.4195 47.0815 56.8376 49.2921C57.1522 50.9557 56.7222 52.6465 55.6572 53.9309C54.5932 55.2154 53.0261 55.9529 51.3584 55.9529ZM51.3596 47.156C50.3986 47.156 49.4955 47.5812 48.8817 48.3222C48.2595 49.0739 48.0194 50.0296 48.2057 51.0125C48.4417 52.2567 49.4748 53.2905 50.7191 53.5265C50.932 53.5667 51.1473 53.5868 51.3584 53.5868C52.3194 53.5868 53.2224 53.1622 53.8363 52.4212C54.459 51.6695 54.6991 50.7144 54.5134 49.7309C54.2781 48.4872 53.2449 47.4529 52.0006 47.217C51.7871 47.1762 51.5713 47.156 51.3596 47.156Z" fill="#4E538D"/>
</svg>
